<?xml version="1.0" standalone="no"?>
<!DOCTYPE svg PUBLIC "-//W3C//DTD SVG 20010904//EN"
 "http://www.w3.org/TR/2001/REC-SVG-20010904/DTD/svg10.dtd">
<svg version="1.0" xmlns="http://www.w3.org/2000/svg"
 width="1812.000000pt" height="1812.000000pt" viewBox="0 0 1812.000000 1812.000000"
 preserveAspectRatio="xMidYMid meet">
<metadata>
Created by potrace 1.14, written by Peter Selinger 2001-2017
</metadata>
<g transform="translate(0.000000,1812.000000) scale(0.100000,-0.100000)"
fill="#000000" stroke="none">
<path d="M8726 13282 c-2 -1 -32 -5 -67 -7 -120 -10 -155 -17 -208 -43 -63
-31 -120 -102 -139 -172 -19 -71 6 -207 44 -236 7 -6 14 -15 14 -20 0 -6 13
-18 30 -27 16 -10 35 -23 42 -30 7 -7 29 -21 48 -31 72 -39 180 -110 180 -118
0 -4 6 -8 13 -8 6 0 24 -10 39 -23 15 -12 55 -44 88 -72 78 -63 113 -95 104
-95 -4 0 6 -10 22 -22 37 -29 126 -119 122 -123 -2 -2 -28 -6 -58 -9 -69 -8
-115 -14 -160 -21 -19 -3 -51 -8 -70 -10 -51 -7 -64 -10 -77 -18 -8 -5 -13 -3
-13 3 0 7 -6 8 -17 2 -10 -6 -38 -13 -63 -18 -50 -9 -58 -10 -65 -14 -7 -4
-15 -5 -65 -14 -25 -5 -52 -12 -60 -16 -8 -4 -31 -10 -51 -13 -19 -2 -45 -10
-57 -16 -12 -6 -22 -10 -22 -7 0 3 -16 -2 -35 -10 -19 -8 -35 -11 -35 -8 0 4
-6 1 -13 -5 -8 -6 -24 -13 -38 -15 -13 -3 -25 -5 -26 -7 -2 -1 -6 -2 -10 -4
-13 -3 -47 -17 -82 -32 -18 -8 -39 -16 -46 -17 -7 -1 -19 -7 -27 -14 -8 -6
-18 -9 -21 -5 -4 3 -13 1 -20 -5 -28 -23 -152 -80 -162 -75 -5 4 -7 3 -3 -2 6
-6 -54 -55 -68 -55 -5 0 -53 -35 -97 -70 -44 -35 -109 -104 -123 -131 -8 -16
-18 -29 -22 -29 -11 0 -55 -106 -60 -145 -13 -92 9 -194 60 -281 23 -40 32
-84 16 -84 -6 0 -8 -6 -5 -14 3 -8 3 -17 0 -20 -3 -3 -7 -20 -9 -38 -8 -87
-25 -128 -56 -136 -5 -1 -9 -2 -10 -3 -2 0 -22 -3 -46 -5 -46 -5 -87 -11 -87
-14 0 -2 -41 -6 -83 -9 -13 0 -34 -13 -49 -27 -20 -20 -24 -32 -19 -55 7 -36
26 -57 57 -63 13 -2 41 -7 61 -11 20 -4 54 -8 75 -10 21 -2 38 -4 38 -5 0 -1
13 -3 29 -5 16 -2 35 -6 42 -9 20 -8 41 -56 48 -111 26 -207 34 -226 99 -225
21 1 71 30 51 30 -5 0 -4 4 3 8 6 4 14 27 17 52 4 25 9 56 11 70 3 14 7 47 11
75 3 27 10 55 16 62 6 7 7 13 2 13 -25 0 39 29 77 35 24 4 51 8 59 10 8 2 41
6 73 10 31 4 57 11 57 16 0 5 6 6 14 3 8 -3 19 3 25 15 10 18 9 20 -6 15 -10
-2 -8 1 5 7 22 12 31 39 12 39 -6 0 -9 3 -9 8 3 20 -2 32 -16 32 -8 0 -15 -5
-15 -11 0 -5 4 -8 9 -4 5 3 13 0 17 -7 4 -7 3 -10 -1 -5 -5 4 -19 -3 -33 -15
-16 -16 -23 -18 -20 -8 2 8 -2 14 -9 13 -9 -2 -10 5 -4 36 1 2 8 -2 16 -9 8
-7 15 -9 15 -5 0 9 -31 34 -43 35 -5 0 -5 -6 -2 -12 4 -7 1 -6 -7 2 -7 8 -18
16 -23 17 -6 0 -28 4 -50 7 -137 22 -144 27 -159 116 -2 14 -6 31 -8 39 -2 10
10 13 50 14 28 0 52 4 52 9 0 4 3 7 8 7 4 -1 10 0 15 1 4 1 10 3 15 5 39 11
120 64 164 108 15 15 28 25 28 23 0 -3 12 7 28 21 38 36 158 114 212 138 25
11 48 23 51 28 3 5 9 8 13 7 4 -2 22 5 39 13 61 30 189 77 197 72 5 -3 10 0
12 5 2 6 12 13 23 15 11 2 20 4 20 5 0 1 7 3 15 5 8 2 38 11 65 20 28 10 55
18 60 20 6 1 34 9 64 18 29 9 57 14 62 11 5 -3 9 0 9 5 0 6 7 11 15 11 18 0
199 47 233 61 13 5 21 5 18 0 -3 -5 11 -3 32 5 21 7 47 11 58 10 10 -2 21 1
24 5 3 5 36 10 73 11 37 2 67 6 67 9 0 7 57 2 71 -7 5 -3 7 -10 3 -15 -3 -5
-1 -15 4 -22 5 -7 15 -30 22 -52 7 -22 16 -44 21 -49 5 -6 9 -19 9 -31 0 -12
4 -25 9 -31 4 -5 14 -31 21 -59 7 -27 16 -54 19 -60 3 -5 6 -14 7 -20 1 -5 5
-22 8 -37 3 -16 8 -40 11 -55 3 -16 8 -36 11 -45 6 -19 14 -59 19 -93 1 -11 6
-40 10 -64 l8 -44 -34 7 c-31 6 -45 8 -98 20 -87 20 -351 27 -441 12 -25 -4
-60 -8 -77 -9 -18 -1 -33 -4 -33 -8 0 -3 -6 -6 -13 -6 -20 0 -201 -56 -207
-64 -3 -4 -19 -11 -35 -15 -17 -4 -41 -14 -53 -22 -44 -29 -87 -53 -104 -58
-10 -4 -18 -10 -18 -15 0 -5 -5 -9 -11 -9 -6 0 -16 -6 -24 -12 -7 -7 -28 -24
-47 -38 -31 -23 -154 -145 -188 -186 -8 -10 -14 -22 -12 -26 1 -5 -2 -8 -8 -8
-19 0 -133 -228 -144 -291 -3 -13 -5 -24 -6 -24 -5 0 -12 -47 -14 -93 -3 -45
0 -55 18 -65 12 -6 29 -12 38 -13 21 -2 51 30 55 59 2 11 9 25 16 29 9 6 9 8
-1 8 -9 0 -11 7 -7 21 4 12 8 27 9 33 7 33 30 96 36 96 4 0 7 6 7 13 0 21 35
87 46 87 6 0 8 3 4 6 -8 8 48 90 82 122 13 12 21 22 17 22 -4 0 21 27 56 59
34 33 66 57 70 55 4 -3 8 -1 8 5 0 11 99 77 112 73 4 -1 8 2 8 8 0 9 101 60
120 60 6 0 10 4 10 9 0 5 10 11 23 14 12 3 47 13 77 22 70 20 94 26 185 41 67
12 380 7 380 -6 0 -1 16 -3 35 -4 19 -2 46 -6 60 -10 14 -4 35 -9 47 -12 69
-14 68 -12 67 -130 -1 -107 -11 -270 -18 -309 -2 -11 -7 -42 -10 -70 -4 -27
-11 -66 -16 -85 -5 -19 -11 -44 -13 -55 -5 -27 -27 -107 -34 -125 -3 -8 -5
-18 -5 -22 1 -4 -10 -38 -24 -75 -14 -38 -27 -72 -28 -78 -2 -5 -7 -21 -13
-35 -6 -14 -16 -42 -24 -64 -10 -27 -24 -43 -51 -57 -21 -11 -38 -16 -38 -12
0 4 -5 2 -12 -5 -7 -7 -18 -12 -24 -12 -7 0 -23 -4 -36 -9 -13 -5 -27 -10 -33
-11 -5 -1 -17 -6 -25 -10 -13 -7 -53 -16 -115 -25 -11 -2 -21 -4 -22 -5 -7 -6
-110 -22 -173 -27 -80 -7 -300 -9 -300 -4 0 3 -24 6 -52 5 -29 0 -75 4 -103 8
-27 5 -63 11 -80 13 -28 5 -65 12 -90 19 -5 1 -37 8 -70 15 -33 7 -72 19 -86
27 -15 7 -29 11 -32 7 -4 -3 -18 2 -33 12 -15 9 -23 11 -19 5 5 -9 -2 -8 -21
3 -59 31 -96 39 -145 28 -21 -4 -97 -95 -114 -135 -15 -38 -12 -61 11 -87 17
-19 74 -24 74 -6 0 4 4 6 9 2 5 -3 16 2 25 11 16 15 56 27 89 26 10 -1 55 -18
100 -40 70 -33 104 -46 172 -66 6 -2 15 -5 20 -6 6 -1 21 -7 35 -12 13 -5 42
-12 63 -15 46 -6 71 -11 75 -13 2 -2 29 -6 56 -9 15 -1 15 -18 0 -64 -4 -12
-8 -58 -9 -102 -3 -100 15 -144 69 -163 129 -47 196 18 221 213 9 70 12 80 24
78 6 -2 11 2 11 8 0 6 5 7 13 2 16 -10 39 -10 55 1 7 5 12 5 12 -1 0 -9 24 -9
153 1 37 3 67 2 68 -2 0 -4 2 -22 4 -40 2 -19 6 -40 9 -47 2 -7 -27 -46 -64
-86 -38 -41 -70 -77 -70 -81 0 -5 -7 -8 -17 -8 -9 0 -14 -3 -11 -6 4 -3 -22
-30 -55 -61 -34 -30 -70 -64 -79 -75 -10 -11 -18 -17 -18 -13 0 4 -9 -3 -20
-16 -10 -13 -19 -20 -20 -16 0 4 -15 -6 -32 -22 -18 -17 -38 -31 -43 -31 -6 0
-17 -9 -25 -19 -7 -11 -17 -18 -22 -15 -4 3 -11 -2 -14 -10 -3 -9 -12 -16 -19
-16 -8 0 -20 -6 -27 -13 -7 -6 -30 -21 -50 -32 -21 -11 -38 -23 -38 -27 0 -5
-3 -7 -7 -6 -12 3 -84 -45 -117 -78 -28 -29 -72 -104 -60 -104 4 0 2 -6 -3
-12 -18 -23 -8 -139 17 -191 24 -52 84 -117 106 -117 8 0 14 -5 14 -12 0 -6 3
-8 6 -5 4 3 15 2 26 -4 28 -15 68 -21 223 -35 65 -5 241 -6 293 -1 17 2 32 -1
32 -6 0 -4 6 -5 13 0 6 4 28 8 47 10 55 3 172 18 230 29 14 3 39 7 55 10 29 6
171 39 210 50 11 3 26 6 33 6 6 1 12 6 12 11 0 6 3 8 6 4 5 -5 55 10 134 40 8
3 21 7 28 9 25 5 268 118 302 141 19 13 39 23 43 23 8 0 236 148 247 160 3 3
25 21 50 40 25 19 52 41 62 49 9 9 42 39 74 66 82 71 180 172 244 251 30 37
65 78 78 92 12 14 32 42 44 61 12 20 25 38 28 41 3 3 20 28 38 55 17 28 36 55
42 62 5 7 10 14 10 17 0 3 14 29 31 58 18 29 32 59 32 66 0 6 4 12 8 12 4 0
13 16 20 35 7 19 17 35 21 35 4 0 8 7 8 15 0 8 4 23 10 33 34 61 101 242 94
254 -3 4 -1 8 4 8 8 0 21 36 27 80 2 8 8 28 14 43 6 16 9 32 6 37 -3 5 -1 11
4 14 4 3 12 25 16 48 13 72 15 81 26 135 6 29 12 74 14 100 2 27 4 48 5 48 6
0 13 145 13 260 0 176 -4 237 -15 252 -5 7 -5 14 2 18 6 3 8 10 6 14 -5 8 -9
26 -21 111 -10 66 -14 92 -20 120 -4 14 -8 38 -11 53 -3 16 -12 49 -19 75 -8
25 -12 49 -9 54 3 4 0 8 -5 8 -6 0 -10 3 -10 8 3 15 -14 73 -22 78 -5 3 -7 10
-3 15 3 5 1 15 -4 22 -5 7 -15 30 -22 52 -6 22 -20 58 -30 80 -9 22 -23 57
-31 78 -7 20 -17 37 -21 37 -4 0 -8 6 -8 13 0 14 -40 93 -89 175 -17 29 -31
55 -31 57 0 8 -64 100 -74 107 -7 5 -7 8 -1 8 7 0 7 3 0 8 -15 11 -65 79 -65
89 0 4 -9 14 -20 21 -11 7 -20 19 -20 28 0 8 -4 12 -10 9 -5 -3 -10 -1 -10 5
0 6 -17 29 -37 52 -21 23 -48 53 -61 67 -55 62 -151 157 -196 195 -27 22 -56
49 -65 59 -8 9 -21 17 -27 17 -7 0 -14 4 -16 8 -1 5 -30 28 -63 53 -33 24 -64
47 -70 52 -20 15 -84 56 -131 83 -27 15 -51 31 -54 34 -8 10 -164 84 -172 82
-5 -1 -8 3 -8 9 0 5 -4 8 -9 5 -5 -4 -11 -2 -13 2 -3 8 -208 92 -233 96 -5 1
-14 4 -20 7 -5 4 -23 10 -40 14 -16 5 -37 10 -45 12 -8 2 -21 5 -27 5 -7 1
-13 4 -13 8 0 3 -17 7 -37 8 -21 2 -40 6 -43 10 -3 4 -9 8 -15 8 -5 1 -29 5
-53 8 -24 3 -46 7 -50 10 -4 2 -29 7 -57 10 -27 4 -63 9 -78 12 -16 3 -58 7
-95 9 -37 2 -69 5 -72 6 -8 3 -321 4 -324 1z m-752 -2480 c3 -5 -1 -9 -9 -9
-8 0 -15 4 -15 9 0 4 4 8 9 8 6 0 12 -4 15 -8z"/>
<path d="M7900 10837 c0 -2 6 -10 14 -16 11 -9 16 -9 22 1 4 7 4 10 -1 6 -4
-4 -14 -3 -22 3 -7 6 -13 9 -13 6z"/>
<path d="M7260 9717 c0 -4 -4 -5 -10 -2 -10 6 -53 -37 -56 -58 -1 -6 -5 -28
-9 -47 -3 -19 -8 -48 -10 -65 -19 -142 -33 -212 -46 -233 -16 -25 -37 -33
-129 -48 -25 -4 -54 -9 -65 -10 -11 -2 -33 -6 -50 -8 -16 -2 -30 -5 -30 -6 0
-1 -16 -3 -36 -4 -82 -5 -129 -47 -123 -111 4 -34 57 -87 80 -78 8 3 14 1 14
-3 0 -5 17 -9 38 -9 20 0 41 -2 47 -4 5 -3 19 -6 31 -7 12 -1 39 -5 60 -9 22
-4 54 -8 72 -8 17 -1 32 -5 32 -10 0 -4 4 -6 9 -3 10 7 44 -22 59 -50 6 -12
14 -44 16 -70 7 -65 23 -169 26 -169 1 0 3 -13 5 -30 1 -16 3 -30 5 -30 1 0 3
-10 4 -23 3 -21 42 -67 57 -67 4 0 10 -3 14 -7 4 -4 18 -3 31 2 13 5 24 6 24
2 0 -20 51 52 55 78 3 16 7 45 10 63 3 17 8 46 10 62 2 17 6 39 8 50 3 11 8
42 11 70 8 59 33 115 52 116 8 1 17 2 22 3 54 14 73 17 102 20 40 5 104 15
140 23 14 2 34 5 44 4 47 -1 86 37 93 89 5 34 1 43 -25 70 -17 16 -41 30 -54
31 -13 0 -32 3 -43 5 -11 3 -33 7 -50 9 -16 2 -46 6 -65 9 -19 4 -51 9 -70 11
-19 3 -44 7 -55 9 -11 3 -23 5 -26 5 -12 2 -46 37 -53 56 -4 11 -10 38 -12 60
-3 22 -7 51 -10 65 -2 14 -7 41 -9 60 -5 32 -9 54 -21 130 -6 32 -56 76 -89
76 -14 0 -25 -4 -25 -9z"/>
<path d="M1740 7300 c0 -3 -64 -5 -143 -4 -78 0 -152 -4 -164 -9 -36 -16 -56
-73 -59 -167 -1 -47 -3 -267 -3 -490 0 -223 -1 -417 -1 -431 0 -14 10 -41 23
-60 22 -34 24 -34 102 -36 208 -6 332 -6 343 0 6 4 13 3 17 -3 4 -6 10 -8 15
-5 5 3 37 7 72 9 80 5 124 21 133 49 13 38 15 77 5 77 -6 0 -6 9 0 26 24 62
-1 113 -62 128 -14 3 -119 6 -231 7 -147 0 -207 4 -209 12 -5 14 -1 267 4 272
9 10 58 12 64 4 3 -5 11 -6 17 -2 17 11 107 10 100 -1 -4 -5 -1 -6 8 0 18 11
129 12 135 2 3 -5 10 -5 16 -2 6 4 8 2 5 -3 -4 -7 -20 -8 -41 -3 -27 6 -33 5
-29 -6 3 -8 10 -11 17 -7 6 4 5 -1 -3 -10 -16 -20 -22 -22 -19 -6 2 6 -3 14
-11 17 -9 3 -11 0 -7 -7 5 -7 2 -10 -6 -9 -7 2 -12 -4 -10 -12 3 -10 -3 -9
-19 5 -17 15 -21 16 -17 4 4 -9 2 -22 -3 -30 -5 -8 -9 -9 -9 -3 0 6 -6 11 -12
11 -7 0 -20 2 -28 4 -8 2 -14 -1 -13 -7 1 -6 -4 -11 -12 -11 -11 0 -12 5 -3
20 7 14 7 17 -1 13 -6 -4 -21 -2 -33 5 -13 6 -20 8 -16 4 4 -5 2 -15 -4 -24
-10 -13 -10 -14 2 -3 22 19 35 14 16 -7 -11 -12 -14 -21 -7 -26 6 -3 11 1 11
9 0 8 4 18 10 21 6 4 7 -1 3 -11 -5 -13 -2 -16 9 -12 9 4 21 1 28 -5 10 -10
11 -7 7 13 -6 23 -5 23 8 7 11 -16 28 -18 117 -18 137 0 159 3 187 23 24 17
35 62 21 83 -7 11 -6 23 4 45 10 23 1 81 -15 91 -8 5 -9 9 -4 10 6 1 -13 8
-41 18 -40 13 -91 16 -237 16 l-186 0 2 82 c2 61 6 83 15 83 7 0 11 -4 8 -9
-4 -5 4 -7 16 -3 12 3 19 1 15 -4 -7 -12 368 -11 403 0 38 14 50 36 50 101 0
33 1 70 1 83 1 12 -1 29 -4 37 -10 24 -68 48 -122 49 -28 1 -56 5 -62 9 -6 4
-14 3 -18 -3 -4 -7 -12 -7 -26 0 -13 8 -19 7 -19 0 0 -6 -5 -8 -11 -5 -12 8
-89 12 -89 5z m-8 -204 c4 -6 8 -15 8 -21 0 -7 -3 -7 -8 0 -6 9 -14 12 -39 16
-19 3 -34 -2 -29 -10 3 -4 -4 -17 -15 -27 -13 -12 -19 -14 -17 -5 2 7 -3 16
-10 18 -7 3 -10 -1 -6 -10 4 -12 0 -14 -17 -10 -13 4 -18 8 -11 11 7 2 9 9 5
15 -10 16 -13 38 -5 33 4 -2 15 -1 24 3 26 9 112 0 120 -13z m38 4 c0 -5 -7
-7 -15 -4 -8 4 -15 8 -15 10 0 2 7 4 15 4 8 0 15 -4 15 -10z m40 6 c0 -3 -4
-8 -10 -11 -5 -3 -10 -1 -10 4 0 6 5 11 10 11 6 0 10 -2 10 -4z"/>
<path d="M1640 7069 c0 -5 5 -7 10 -4 6 3 10 8 10 11 0 2 -4 4 -10 4 -5 0 -10
-5 -10 -11z"/>
<path d="M2427 7304 c-3 -6 -21 -10 -39 -9 -18 2 -37 0 -43 -3 -5 -4 -18 -8
-27 -9 -38 -6 -83 -83 -58 -98 11 -7 9 -77 -2 -85 -4 -3 1 -20 11 -36 27 -44
83 -59 212 -58 l105 0 3 -370 c1 -204 2 -387 2 -406 -1 -59 17 -97 52 -111 58
-24 118 -6 137 42 7 16 13 86 15 157 1 71 5 133 8 139 4 6 3 13 0 17 -11 10
-10 76 1 76 5 0 4 6 -1 13 -6 6 -8 26 -6 42 5 42 5 47 0 70 -2 11 0 25 5 32 5
7 5 14 -1 17 -6 4 -8 13 -5 20 8 22 10 96 2 96 -4 0 -5 7 -1 16 3 9 7 46 8 83
1 36 3 68 3 71 1 3 64 5 140 5 116 0 141 3 155 17 19 19 32 83 19 92 -6 3 -5
21 3 43 11 32 11 42 -1 66 -8 15 -23 31 -32 34 -9 4 -20 10 -23 15 -11 16
-238 25 -477 18 -51 -1 -95 0 -98 3 -4 3 -17 2 -29 -3 -16 -6 -25 -5 -28 3 -2
7 -5 8 -10 1z"/>
<path d="M3556 7303 c-2 -2 -37 -5 -77 -7 -129 -5 -175 -50 -140 -138 6 -18 7
-28 1 -28 -6 0 -10 -14 -10 -30 0 -32 37 -79 62 -81 7 0 22 -2 33 -4 11 -2 39
-6 62 -9 24 -2 47 -7 52 -10 5 -4 12 -2 16 3 3 6 12 8 20 5 8 -4 28 -1 44 4
25 9 31 8 35 -6 2 -9 5 -177 6 -372 2 -324 3 -394 8 -456 4 -39 39 -64 90 -64
26 0 54 6 63 13 41 31 43 47 47 472 2 225 5 411 7 414 2 2 47 3 99 2 52 -1
117 1 145 5 42 5 52 11 66 38 13 24 15 37 7 52 -7 13 -6 30 2 54 13 37 3 90
-17 90 -6 0 -7 3 -4 7 12 12 -67 40 -105 38 -21 -1 -38 0 -38 4 0 7 -378 6
-386 -1 -2 -3 -22 -2 -44 2 -22 4 -41 5 -44 3z"/>
<path d="M4677 7304 c-3 -4 -50 -8 -104 -9 -54 -1 -106 -5 -115 -9 -9 -4 -24
-23 -33 -43 -20 -41 -24 -156 -25 -648 0 -181 0 -346 0 -366 -1 -76 31 -120
90 -125 22 -1 44 -5 50 -9 5 -3 10 -2 10 3 0 6 14 7 35 2 21 -5 35 -4 35 1 0
6 8 5 19 -1 13 -6 22 -7 26 0 4 6 15 6 33 -1 18 -7 28 -7 30 0 2 6 9 8 15 4 5
-3 58 -5 116 -3 58 1 115 2 126 2 41 0 115 32 122 52 10 31 11 66 1 72 -4 3
-6 10 -3 15 13 21 15 95 2 109 -27 32 -55 37 -217 40 -91 1 -192 3 -225 3
l-60 2 0 87 c0 49 2 88 5 88 3 0 5 26 5 57 l0 57 58 1 c35 1 57 -2 57 -9 0 -7
3 -8 8 -1 8 12 27 13 37 3 4 -4 16 -3 26 3 14 7 19 6 19 -3 0 -8 3 -9 8 -3 11
15 32 17 32 3 0 -9 4 -8 10 2 8 12 11 13 19 1 6 -9 11 -10 15 -2 4 6 12 11 17
11 6 0 7 -6 3 -12 -6 -10 -4 -10 7 -3 18 13 59 13 58 0 0 -5 -7 -9 -16 -7 -9
2 -12 -1 -8 -8 4 -6 13 -9 21 -6 7 3 16 1 19 -4 3 -5 -8 -7 -25 -4 -16 2 -44
6 -60 8 -17 3 -28 1 -25 -4 3 -5 1 -11 -4 -15 -5 -3 -15 3 -21 12 -10 16 -10
15 -5 -4 5 -18 2 -20 -15 -16 -11 3 -20 8 -20 12 0 4 -10 7 -22 8 -18 1 -16
-2 12 -17 19 -11 32 -19 28 -20 -3 0 -15 -3 -25 -6 -15 -5 -15 -4 -3 5 11 8
11 11 3 12 -7 1 -19 2 -25 3 -7 1 -19 -2 -25 -7 -9 -6 -19 -5 -30 4 -11 10
-14 10 -9 2 4 -7 2 -13 -3 -13 -6 0 -11 -5 -11 -11 0 -7 10 -9 26 -5 16 4 23
3 20 -3 -4 -5 -1 -13 5 -17 7 -4 9 -3 6 3 -9 15 29 23 42 10 8 -8 11 -7 11 2
0 7 4 10 8 7 10 -6 119 -8 180 -3 31 3 47 10 59 27 18 26 23 70 8 70 -6 0 -10
-4 -10 -9 0 -6 -6 -16 -14 -23 -9 -8 -11 -8 -7 -1 3 6 2 14 -4 18 -14 9 -12
25 3 20 29 -12 58 86 37 125 -23 44 -70 53 -280 55 l-195 2 -1 94 c-1 52 3
100 9 107 6 8 6 12 -2 12 -8 0 -8 4 1 14 7 8 16 12 19 10 4 -2 40 -5 81 -6 53
-1 75 -5 75 -14 0 -7 -5 -10 -11 -6 -18 11 -36 11 -36 -1 0 -8 -4 -7 -12 1
-17 17 -28 15 -22 -5 4 -13 3 -14 -3 -5 -13 18 -56 24 -65 9 -11 -17 -10 -27
2 -27 6 0 9 5 8 11 -2 6 5 13 15 14 18 3 18 3 1 -16 -9 -10 -23 -19 -31 -19
-7 0 -13 -5 -13 -11 0 -5 5 -7 12 -3 7 4 8 3 4 -5 -4 -6 -12 -8 -18 -5 -7 4
-8 2 -4 -4 5 -9 13 -9 27 -2 10 6 19 7 19 2 0 -9 360 -8 399 2 38 9 52 35 46
89 -3 26 -1 47 4 47 5 0 7 19 5 43 -4 41 -36 82 -67 85 -83 7 -130 12 -137 17
-5 3 -11 1 -15 -5 -4 -7 -12 -7 -25 0 -10 6 -21 6 -24 2 -3 -5 -25 -6 -48 -2
-24 3 -57 3 -75 -1 -17 -3 -36 -2 -41 3 -4 4 -11 5 -15 2z m356 -627 c3 -7 -3
-13 -12 -14 -10 -1 -18 5 -18 13 0 18 23 19 30 1z m-94 -36 c9 -6 6 -8 -13 -8
-14 0 -23 3 -20 8 7 11 15 11 33 0z m-134 -30 c-9 -8 -36 -10 -30 -2 2 4 11 8
20 8 8 0 13 -3 10 -6z"/>
<path d="M5440 7302 c0 -6 -8 -8 -18 -5 -30 7 -72 -15 -82 -44 -6 -16 -15 -36
-20 -45 -6 -10 -7 -18 -3 -18 5 0 7 -42 5 -92 -1 -51 -2 -97 -2 -103 -1 -5 0
-49 1 -96 1 -48 -1 -91 -5 -97 -3 -6 -3 -13 1 -15 7 -5 9 -76 3 -102 -1 -5 -1
-12 0 -15 2 -7 3 -303 0 -315 -1 -5 -1 -12 0 -15 1 -3 3 -43 5 -90 4 -110 15
-136 57 -146 53 -13 79 -9 105 14 28 24 52 122 31 122 -5 0 -5 8 0 18 8 15 16
197 13 324 -1 52 11 62 64 52 17 -4 38 -6 49 -6 10 1 17 0 15 -1 -2 -2 -13 -9
-23 -17 -16 -12 -18 -12 -12 -1 6 9 5 12 -5 9 -8 -3 -13 -10 -12 -16 1 -5 -4
-13 -13 -16 -12 -4 -12 -2 -4 14 5 10 10 22 10 27 -1 4 -8 -4 -16 -20 -8 -15
-12 -33 -8 -39 5 -7 2 -9 -8 -6 -9 4 -15 0 -15 -8 0 -12 5 -11 25 2 13 9 21
11 18 5 -8 -12 -8 -12 51 -16 23 -1 40 2 37 6 -3 5 6 4 20 -3 14 -6 26 -17 26
-25 0 -7 5 -13 12 -13 6 0 9 -3 6 -6 -4 -3 9 -33 28 -66 19 -33 34 -66 34 -74
0 -8 4 -14 9 -14 9 0 35 -54 31 -66 -1 -4 2 -10 7 -13 5 -3 24 -33 42 -66 34
-61 72 -104 94 -106 49 -5 74 -2 84 8 7 6 18 13 25 15 11 4 16 49 18 157 0 20
-64 165 -80 181 -9 9 -60 120 -60 131 0 6 7 17 15 25 8 9 15 13 15 9 0 -10 55
59 67 85 21 45 25 72 28 178 2 111 -7 166 -36 219 -36 64 -64 103 -75 103 -7
0 -14 7 -18 15 -3 8 -9 14 -13 13 -4 0 -21 4 -38 11 -16 7 -30 12 -30 11 0 -1
-13 4 -30 10 -43 16 -81 20 -252 24 -84 2 -157 7 -162 11 -6 3 -11 2 -11 -3z
m247 -206 c4 -3 12 -1 20 5 8 7 13 7 13 2 0 -6 11 -9 25 -8 14 2 27 -1 31 -6
3 -5 10 -7 15 -4 5 4 9 1 9 -5 0 -6 4 -9 9 -6 12 8 61 -50 62 -72 0 -9 2 -27
3 -40 2 -12 -3 -34 -10 -47 -7 -13 -11 -25 -9 -27 7 -6 -62 -48 -86 -54 -36
-7 -228 -9 -235 -2 -6 7 -7 30 -5 182 1 83 2 88 21 83 11 -3 20 -2 20 2 0 9
109 6 117 -3z"/>
<path d="M5782 7016 c10 -7 14 -17 10 -21 -4 -5 -1 -5 6 -1 7 4 15 1 18 -8 3
-9 10 -13 16 -10 8 5 -48 54 -61 54 -3 0 2 -7 11 -14z"/>
<path d="M5750 7011 c0 -5 5 -13 10 -16 6 -3 10 -2 10 4 0 5 -4 13 -10 16 -5
3 -10 2 -10 -4z"/>
<path d="M7059 7298 c-10 -4 -29 -9 -41 -11 -67 -10 -178 -87 -178 -123 0 -8
-4 -14 -9 -14 -9 0 -19 -23 -26 -59 -2 -9 -4 -16 -5 -16 -10 0 -12 -100 -6
-220 7 -121 81 -202 216 -235 30 -8 61 -18 68 -23 8 -6 12 -5 12 2 0 7 5 9 11
5 6 -3 36 -8 67 -11 83 -6 94 -9 168 -45 28 -13 41 -26 39 -37 -2 -9 -4 -20
-4 -24 -2 -15 -56 -60 -89 -74 -47 -19 -125 -27 -116 -10 5 9 4 9 -5 1 -9 -9
-22 -9 -48 -1 -31 10 -66 40 -155 134 -11 13 -24 20 -29 18 -4 -3 -10 -1 -13
4 -11 17 -80 0 -103 -26 -24 -27 -27 -38 -23 -88 2 -16 3 -52 4 -80 1 -29 10
-64 21 -84 26 -43 79 -101 94 -101 6 0 14 -7 17 -15 4 -8 10 -15 14 -15 4 0
25 -8 46 -17 48 -20 58 -23 111 -26 23 -2 45 -6 49 -10 4 -3 11 -4 17 0 5 3
31 8 56 10 46 3 96 10 96 13 0 1 11 4 25 6 13 2 35 11 47 19 13 9 23 13 23 10
0 -4 26 12 58 34 54 39 102 99 117 149 14 47 25 282 12 282 -4 0 -7 6 -6 13 1
6 -4 28 -12 47 -7 19 -12 39 -10 45 1 5 -1 7 -5 3 -3 -4 -19 8 -34 27 -15 19
-30 32 -34 28 -3 -3 -6 -1 -6 4 0 10 -79 55 -102 59 -5 1 -11 3 -15 4 -5 1
-12 3 -18 5 -5 1 -12 3 -15 4 -7 3 -64 10 -120 16 -25 2 -45 4 -45 5 0 1 -18
4 -40 6 -55 5 -112 32 -119 57 -3 12 -4 21 -3 22 1 0 22 12 47 25 39 21 58 25
135 25 85 0 155 -17 155 -37 0 -5 6 -8 14 -8 8 0 16 -3 18 -7 2 -5 19 -19 38
-32 44 -32 95 -30 126 4 19 21 21 29 13 59 -5 20 -6 43 -1 57 17 44 -8 111
-58 157 -45 41 -145 83 -202 86 -10 0 -18 3 -18 6 0 8 -198 6 -221 -2z m191
-198 c0 -5 -2 -10 -4 -10 -3 0 -8 5 -11 10 -3 6 -1 10 4 10 6 0 11 -4 11 -10z
m48 0 c1 -2 7 -3 14 -4 6 0 13 -8 15 -16 4 -13 3 -13 -6 0 -6 8 -11 11 -11 6
0 -5 -6 -3 -13 3 -8 6 -16 8 -19 5 -3 -3 -9 -1 -12 4 -5 8 22 9 32 2z"/>
<path d="M8997 7304 c-3 -4 -53 -7 -111 -8 -158 -3 -157 -2 -162 -346 -9 -604
-7 -680 13 -713 3 -6 1 -7 -5 -3 -17 10 -6 -68 13 -98 18 -28 44 -35 125 -35
30 0 94 -2 143 -3 48 -2 87 1 87 5 0 5 5 5 12 1 13 -8 86 -10 94 -2 3 3 20 2
39 -2 19 -4 36 -5 39 -2 3 3 24 6 46 8 75 6 126 57 102 101 -6 10 -6 30 0 51
13 47 2 99 -24 113 -28 15 -58 17 -285 19 -173 1 -193 3 -194 18 -5 74 2 186
13 200 10 12 10 14 1 8 -10 -5 -13 2 -13 27 0 40 8 51 27 36 8 -7 13 -8 13 -1
0 10 50 9 68 -2 6 -3 12 0 15 6 3 10 7 10 20 -1 10 -7 17 -9 17 -4 0 12 50 11
69 -1 9 -6 12 -5 8 0 -3 5 10 10 28 10 18 0 31 -4 29 -8 -8 -12 11 -9 24 4 8
8 12 9 12 1 0 -12 18 -12 38 0 6 5 12 4 12 0 0 -15 -42 -36 -49 -24 -5 8 -13
6 -27 -4 -19 -15 -19 -15 1 -9 15 4 17 4 6 -4 -10 -7 -21 -6 -38 5 -13 9 -26
13 -30 9 -3 -3 -1 -6 5 -6 15 0 15 -27 0 -36 -7 -5 -9 -2 -5 9 7 18 -19 32
-29 15 -4 -7 -3 -8 4 -4 7 4 12 2 12 -3 0 -15 -13 -14 -28 1 -16 16 -55 -20
-43 -40 6 -10 10 -7 15 12 3 14 11 26 17 26 8 0 7 -5 -1 -15 -7 -9 -11 -17 -8
-20 6 -6 209 -8 233 -2 11 3 27 7 35 9 20 4 38 47 33 78 -4 30 -4 34 3 88 5
38 3 45 -24 70 -17 16 -36 30 -44 31 -7 1 -103 3 -213 4 l-200 3 0 100 c-1 54
2 104 4 109 3 6 6 14 6 19 0 5 32 8 70 7 39 -2 84 -4 102 -5 17 0 34 -4 38 -8
3 -3 -7 -5 -24 -4 -17 1 -31 -2 -31 -7 0 -4 -5 -5 -10 -2 -6 4 -22 8 -35 11
-18 3 -25 0 -25 -11 0 -9 -5 -13 -10 -10 -6 4 -7 12 -3 18 5 9 3 9 -8 0 -11
-9 -19 -9 -26 -2 -6 6 -10 4 -10 -8 0 -10 8 -24 17 -33 9 -8 10 -11 3 -6 -7 5
-13 5 -13 0 0 -5 -7 0 -15 10 -8 11 -15 15 -15 9 0 -7 5 -15 10 -18 6 -3 10
-11 10 -16 0 -6 -5 -7 -12 -3 -7 5 -8 3 -3 -5 5 -9 10 -10 18 -2 7 7 16 7 29
0 13 -7 23 -7 33 1 7 6 16 7 19 2 7 -12 316 -7 348 6 26 11 54 70 38 82 -4 3
-5 19 -3 35 10 81 7 98 -21 120 -15 12 -33 22 -39 23 -83 7 -130 12 -137 17
-5 3 -11 1 -15 -5 -4 -7 -12 -7 -24 0 -10 5 -21 7 -24 4 -7 -8 -153 -8 -165 0
-5 3 -12 3 -15 0z m17 -241 c4 -11 1 -11 -14 -3 -24 13 -25 17 -5 17 8 0 16
-6 19 -14z"/>
<path d="M9867 7304 c-4 -4 -40 -8 -80 -9 -40 0 -78 -5 -86 -9 -35 -22 -49
-86 -51 -230 -6 -564 -6 -741 0 -781 4 -25 4 -45 0 -45 -14 0 4 -67 26 -96 21
-28 29 -32 69 -30 24 1 47 -3 49 -9 3 -6 5 -6 5 1 1 6 13 9 29 7 73 -8 232 -8
232 1 0 6 5 5 11 -1 8 -8 20 -8 35 -3 14 6 26 6 29 0 3 -5 15 -6 28 -4 12 3
46 6 74 7 29 1 53 6 53 11 0 5 3 6 6 3 19 -19 75 50 68 83 -1 8 -5 25 -8 37
-3 13 -1 25 3 28 14 8 5 74 -13 94 -25 27 -53 30 -285 31 l-209 1 1 144 c1 79
4 141 6 139 2 -2 10 1 17 7 8 7 14 7 19 -1 3 -6 12 -7 18 -3 18 11 71 10 80
-2 4 -6 10 -5 17 5 9 13 10 13 10 0 0 -9 3 -11 8 -5 11 15 82 13 82 -2 0 -7 5
-13 11 -13 5 0 7 5 3 12 -4 7 -3 8 4 4 7 -4 12 -1 12 6 0 9 3 9 10 -2 9 -13
11 -13 20 0 6 10 10 11 10 2 0 -14 21 -12 32 3 5 6 8 5 8 -3 0 -9 5 -10 19 -2
14 7 22 7 27 -2 4 -6 3 -8 -4 -4 -6 3 -18 -1 -26 -10 -10 -10 -16 -11 -16 -3
0 9 -4 8 -15 -1 -8 -7 -15 -9 -15 -5 0 4 -8 1 -17 -6 -11 -10 -14 -10 -9 -1 8
13 -6 17 -18 5 -4 -4 -29 -6 -56 -6 -43 2 -48 0 -45 -18 2 -11 0 -17 -6 -13
-6 3 -8 9 -5 12 9 8 -15 33 -26 26 -5 -3 -16 0 -25 8 -15 12 -15 11 -3 -9 11
-16 17 -19 27 -11 9 7 13 7 13 -1 0 -12 -1 -12 -45 -15 -26 -1 -30 2 -28 22 2
12 -2 22 -7 22 -6 0 -9 -3 -9 -7 3 -20 -2 -30 -16 -30 -10 0 -14 6 -10 15 4
12 2 12 -8 4 -8 -7 -17 -9 -20 -5 -4 3 -7 2 -7 -4 0 -6 9 -13 20 -16 13 -3 18
-10 14 -21 -4 -12 0 -16 15 -16 12 0 21 5 21 10 0 6 5 10 11 10 5 0 7 -4 4
-10 -3 -5 0 -10 7 -11 38 -2 295 1 308 4 63 14 71 27 70 102 -1 22 1 57 3 78
3 29 -1 43 -19 62 -13 14 -29 25 -36 26 -7 0 -22 3 -33 6 -11 2 -103 6 -205 8
-215 3 -203 3 -196 14 3 4 7 56 8 115 l3 107 82 -3 c79 -2 101 -9 68 -22 -8
-3 -26 -1 -40 4 -16 6 -25 6 -25 0 0 -6 5 -10 12 -10 6 0 8 -3 5 -7 -4 -3 -17
2 -29 13 -12 10 -18 13 -14 7 4 -8 1 -13 -8 -13 -9 0 -16 -4 -16 -9 0 -6 9 -8
20 -6 12 2 18 0 15 -6 -4 -5 -10 -7 -15 -4 -5 3 -14 -3 -20 -12 -10 -17 -10
-17 -8 1 2 10 -4 21 -12 23 -9 3 -11 1 -5 -4 6 -4 10 -14 11 -20 2 -29 5 -32
19 -27 8 4 12 11 9 18 -3 6 0 4 8 -5 11 -13 41 -15 188 -14 190 1 235 7 245
33 12 28 14 66 5 77 -5 6 -5 17 0 25 17 27 11 85 -10 108 -12 12 -25 23 -30
23 -14 2 -29 6 -32 9 -2 1 -29 3 -61 5 -31 2 -61 7 -67 10 -5 3 -11 1 -15 -5
-4 -6 -11 -7 -17 -4 -12 8 -226 6 -238 -1 -5 -3 -10 0 -12 6 -2 5 -7 7 -11 3z
m73 -679 c0 -2 -6 -8 -13 -14 -10 -8 -14 -7 -14 2 0 8 6 14 14 14 7 0 13 -1
13 -2z"/>
<path d="M10780 7300 c0 -3 -30 -5 -68 -4 -94 0 -124 -16 -137 -76 -7 -30 -7
-918 -1 -1000 8 -98 27 -118 110 -115 52 2 83 24 92 65 3 14 7 97 9 185 2 88
4 168 4 178 1 10 9 17 22 17 13 0 18 -4 13 -12 -5 -7 -3 -8 6 -3 7 4 47 10 89
12 42 3 88 5 103 6 14 1 30 5 34 10 4 4 15 7 25 7 27 0 119 32 119 42 0 5 4 7
10 3 14 -9 85 60 106 103 25 52 26 54 29 180 2 94 -1 123 -18 170 -22 62 -27
70 -78 122 -31 31 -90 68 -116 72 -5 1 -24 5 -43 10 -43 11 -94 17 -180 23
-36 2 -65 4 -65 5 0 1 -15 2 -33 3 -17 1 -32 0 -32 -3z m80 -200 c0 -3 9 -6
20 -6 11 0 20 4 20 9 0 4 5 5 12 1 7 -5 30 -9 51 -10 21 -1 44 -8 52 -14 8 -7
15 -9 15 -6 0 4 14 -1 30 -11 28 -16 36 -41 12 -36 -5 1 -8 -8 -5 -20 4 -19 3
-20 -7 -4 -6 9 -16 17 -22 17 -6 0 -5 -7 3 -17 10 -11 10 -14 2 -9 -7 4 -23 9
-35 11 -16 4 -19 2 -10 -7 11 -11 31 -18 59 -20 7 -1 15 -8 17 -15 3 -8 10
-11 16 -8 6 4 8 10 5 15 -3 5 0 12 6 16 8 5 9 3 4 -6 -6 -10 -4 -12 7 -7 13 4
15 -2 14 -33 -2 -40 -29 -80 -53 -80 -7 0 -13 -4 -13 -10 0 -5 -3 -9 -7 -9 -5
1 -10 0 -13 -1 -20 -7 -102 -17 -198 -24 -24 -1 -46 2 -49 8 -4 5 -7 70 -7
142 l-1 133 25 3 c41 5 50 5 50 -2z m245 -80 c-3 -5 -11 -10 -16 -10 -6 0 -7
5 -4 10 3 6 11 10 16 10 6 0 7 -4 4 -10z"/>
<path d="M10950 7006 c0 -2 7 -7 16 -10 8 -3 12 -2 9 4 -6 10 -25 14 -25 6z"/>
<path d="M11103 6945 c0 -8 4 -12 9 -9 4 3 8 9 8 15 0 5 -4 9 -8 9 -5 0 -9 -7
-9 -15z"/>
<path d="M12083 7297 c-45 -26 -55 -52 -59 -157 -1 -41 -3 -75 -4 -75 -5 0 -5
-777 0 -801 4 -17 4 -38 0 -45 -5 -8 0 -36 11 -64 14 -38 24 -51 41 -53 13 -2
32 -4 43 -6 35 -4 75 15 90 44 8 15 11 30 8 34 -4 3 -2 6 3 6 8 0 13 167 14
443 0 35 4 56 10 52 6 -3 10 -1 10 6 0 8 3 9 13 0 8 -6 16 -9 19 -6 9 9 158
11 158 3 0 -5 5 -6 12 -2 17 11 78 12 84 2 3 -5 13 -4 22 0 19 9 33 10 47 0 6
-4 10 -101 10 -257 0 -145 4 -251 9 -251 5 0 6 -3 3 -6 -10 -10 30 -60 50 -63
104 -11 142 20 142 114 -1 22 0 42 1 45 2 7 9 446 10 733 2 215 0 251 -15 273
-20 32 -51 43 -101 38 -81 -7 -95 -55 -98 -349 l-1 -80 -192 -1 -191 -2 1 177
c1 184 -7 232 -41 247 -27 11 -88 12 -109 1z"/>
<path d="M13415 7302 c-1 -2 -72 -4 -157 -5 -120 -2 -159 -6 -173 -17 -20 -16
-50 -79 -46 -95 1 -5 2 -17 2 -25 -1 -8 -3 -224 -5 -480 -3 -310 -1 -469 6
-477 7 -9 7 -13 -1 -13 -8 0 -4 -15 10 -40 13 -23 30 -40 40 -40 10 0 21 -5
24 -10 4 -6 11 -7 17 -4 6 4 32 7 57 6 68 -2 355 -4 361 -2 3 1 30 3 61 4 103
4 156 46 138 109 -4 15 -4 40 0 55 4 15 6 33 5 40 -1 6 -2 19 -3 27 0 8 -13
23 -28 32 -23 15 -59 19 -253 23 l-225 5 0 144 0 145 45 1 c25 0 48 -4 52 -10
5 -6 8 -6 8 3 0 6 7 12 15 12 8 0 15 -6 15 -12 0 -8 3 -9 8 -3 8 12 101 13
119 2 6 -4 14 -4 16 0 3 5 34 8 69 8 51 0 62 -3 60 -15 -2 -8 0 -11 5 -7 4 5
8 14 8 20 0 7 5 12 10 13 51 4 73 71 43 131 -6 12 -15 20 -20 17 -4 -3 -8 -1
-8 5 0 18 -64 25 -250 27 -102 1 -187 2 -190 3 -6 1 -6 36 0 166 4 74 5 76 35
65 15 -6 27 -6 30 1 4 5 11 7 16 3 17 -10 -9 -31 -36 -28 -14 1 -23 -2 -20 -6
3 -5 13 -6 22 -3 12 5 14 3 8 -7 -12 -20 17 0 34 23 11 16 23 18 71 14 32 -2
65 0 73 5 9 4 18 4 21 0 3 -5 0 -9 -7 -10 -31 -2 -73 -14 -87 -25 -13 -11 -13
-10 -1 5 12 17 11 17 -20 11 -19 -3 -36 -9 -39 -13 -11 -15 -51 -30 -63 -24
-9 6 -8 3 1 -8 10 -13 10 -18 1 -24 -8 -4 -9 -3 -5 4 4 7 2 12 -3 12 -6 0 -11
-4 -11 -8 0 -16 13 -21 31 -12 10 6 20 6 23 2 5 -9 338 -8 375 2 45 11 54 29
56 118 1 46 -2 92 -7 103 -14 32 -64 48 -162 51 -50 2 -91 4 -91 4 0 3 -77 5
-80 2z"/>
<path d="M14415 7299 c-4 -5 -13 -8 -20 -5 -20 7 -55 -32 -83 -93 -15 -31 -27
-60 -28 -66 -1 -5 -15 -41 -32 -80 -29 -70 -44 -105 -47 -115 -1 -3 -7 -17
-13 -32 -28 -67 -35 -84 -38 -93 -2 -10 -48 -121 -76 -186 -9 -19 -39 -95 -69
-169 -49 -125 -54 -150 -48 -225 1 -11 -1 -32 -4 -48 -13 -63 86 -112 154 -76
19 10 30 18 24 19 -6 0 -6 3 1 8 13 8 47 73 65 122 7 19 16 40 20 45 4 6 77
10 186 9 101 0 183 3 191 9 8 6 12 6 12 -2 0 -6 3 -10 8 -10 22 4 32 -5 43
-38 19 -61 55 -126 83 -152 39 -37 119 -27 152 17 14 19 16 193 2 209 -6 7 -7
13 -3 13 4 0 2 7 -5 15 -7 8 -9 15 -5 15 4 0 3 6 -3 13 -5 6 -31 66 -57 132
-46 116 -59 149 -89 218 -8 17 -22 52 -31 77 -10 25 -23 59 -30 75 -7 17 -37
89 -65 160 -80 198 -95 222 -147 231 -15 3 -30 7 -34 10 -4 2 -11 -1 -14 -7z
m31 -410 c1 -5 3 -11 4 -14 1 -3 3 -8 4 -12 1 -5 7 -18 14 -30 10 -18 9 -24
-5 -33 -15 -9 -14 -10 7 -4 20 6 23 4 14 -7 -6 -8 -11 -22 -11 -32 0 -13 6
-16 21 -11 21 6 21 6 1 -11 -11 -9 -14 -13 -6 -9 10 5 13 3 8 -9 -6 -17 15
-41 27 -30 4 4 9 -3 13 -15 3 -12 10 -22 16 -22 8 0 8 -3 0 -11 -11 -11 -229
-16 -239 -6 -3 3 2 18 11 34 9 15 14 21 11 11 -5 -18 3 -30 15 -22 5 2 4 16
-2 31 -9 24 -8 25 8 12 11 -9 14 -10 9 -1 -4 6 -3 12 3 12 6 0 14 12 17 28 4
15 10 32 14 37 4 6 10 19 14 30 6 16 5 18 -6 7 -7 -7 -13 -18 -13 -24 0 -6 -7
-13 -15 -15 -13 -4 -13 -3 0 6 8 6 11 11 6 11 -4 0 -1 11 8 25 9 13 16 29 16
34 0 5 5 22 10 37 10 24 23 26 26 3z m49 -119 c3 -5 1 -10 -4 -10 -6 0 -11 5
-11 10 0 6 2 10 4 10 3 0 8 -4 11 -10z m35 -66 c0 -8 -19 -13 -24 -6 -3 5 1 9
9 9 8 0 15 -2 15 -3z m-280 -314 c-6 -11 -13 -20 -16 -20 -3 0 -2 5 1 10 3 6
1 10 -5 10 -6 0 -8 5 -5 10 3 6 13 10 21 10 12 0 12 -4 4 -20z m21 -3 c-10 -9
-11 -8 -5 6 3 10 9 15 12 12 3 -3 0 -11 -7 -18z m59 14 c0 -6 -4 -12 -8 -15
-5 -3 -9 1 -9 9 0 8 4 15 9 15 4 0 8 -4 8 -9z m168 -4 c7 -5 12 -3 12 4 0 7 3
10 6 6 10 -10 -7 -28 -19 -20 -18 11 -71 10 -79 -2 -5 -6 -8 -3 -8 6 0 13 9
16 38 15 20 -1 43 -5 50 -9z m140 -4 c12 -12 10 -13 -14 -8 -40 9 -46 9 -74 2
-14 -4 -19 -4 -12 -1 6 3 10 9 8 12 -8 14 78 9 92 -5z"/>
<path d="M14430 6836 c0 -2 8 -10 18 -17 15 -13 16 -12 3 4 -13 16 -21 21 -21
13z"/>
<path d="M16075 7302 c-1 -2 -45 -4 -96 -6 -130 -4 -149 -11 -177 -62 -12 -22
-11 -41 2 -62 4 -7 5 -30 1 -52 -15 -87 34 -112 218 -114 53 -1 98 -3 98 -6 1
-3 3 -169 5 -370 3 -317 6 -411 13 -467 5 -44 88 -68 145 -42 47 22 49 46 50
435 1 200 5 364 9 364 4 0 4 7 0 15 -11 19 -4 87 8 79 5 -3 9 1 9 8 0 10 2 10
9 -1 7 -11 34 -13 131 -9 119 4 123 5 146 32 18 20 22 34 17 54 -3 15 -6 33
-5 42 1 8 2 23 3 33 0 9 5 17 10 17 6 0 7 6 2 13 -4 6 -8 18 -9 25 -3 14 -45
56 -61 59 -62 13 -517 26 -528 15z"/>
<path d="M16946 7303 c-22 -6 -35 -18 -55 -53 -15 -26 -18 -125 -22 -710 -2
-299 1 -368 17 -399 26 -49 117 -61 159 -21 25 23 23 13 29 153 2 60 7 111 10
114 2 3 1 16 -4 29 -6 15 -6 24 0 24 6 0 6 9 0 24 -5 13 -6 26 -3 29 3 3 5 33
5 66 1 38 4 58 11 54 6 -4 7 -1 1 8 -11 19 -13 58 -2 65 4 3 8 0 8 -7 0 -8 4
-8 15 1 12 10 15 10 15 0 0 -9 3 -10 13 -1 10 8 17 7 25 -1 9 -9 12 -9 12 0 0
9 5 10 19 3 10 -6 21 -8 23 -5 11 10 48 12 48 3 0 -6 6 -7 12 -3 19 12 48 12
48 0 0 -7 3 -8 8 -1 9 13 92 14 92 2 0 -5 7 -4 15 3 8 7 16 9 16 4 1 -5 2
-120 4 -255 1 -219 4 -250 21 -285 10 -21 24 -39 31 -39 6 0 14 -3 17 -6 9 -8
74 -1 97 11 31 17 40 72 42 269 1 105 5 191 9 191 4 0 5 6 3 13 -7 18 -12 107
-5 107 3 0 5 121 4 269 -1 286 -6 323 -48 338 -68 23 -128 1 -147 -54 -15 -42
-16 -63 -20 -246 l-2 -128 -79 3 c-47 2 -78 -1 -78 -7 0 -7 -3 -7 -8 0 -4 6
-54 10 -112 10 l-105 0 0 175 c0 182 -9 232 -43 245 -24 9 -73 13 -96 8z"/>
<path d="M537 7290 c-52 -9 -83 -28 -96 -57 -13 -28 -15 -958 -3 -1074 3 -28
39 -60 74 -65 45 -8 317 -6 348 2 14 3 32 6 40 6 8 0 33 5 55 11 22 6 42 11
45 12 23 5 56 19 67 29 34 27 69 64 81 84 20 36 40 102 30 102 -5 0 -6 5 -2
12 11 18 12 201 1 216 -5 6 -7 12 -3 12 8 0 -24 77 -54 127 -14 24 -30 43 -35
43 -6 0 -16 5 -22 11 -14 14 40 75 56 64 6 -3 8 0 5 8 -3 8 2 17 11 21 9 3 14
10 11 14 -3 4 0 28 6 53 13 53 12 52 4 114 -15 114 -102 214 -201 233 -11 2
-24 4 -30 6 -5 1 -16 5 -23 10 -17 10 -313 15 -365 6z m273 -190 c0 -3 15 -6
34 -7 45 -2 82 -27 95 -65 13 -37 13 -41 3 -34 -4 3 -7 -9 -6 -26 1 -17 -3
-37 -9 -44 -7 -7 -18 -20 -25 -28 -27 -33 -168 -52 -220 -30 -18 7 -33 21 -33
31 -5 68 -3 152 4 175 5 16 17 28 30 30 37 5 127 4 127 -2z m-16 -413 c3 3 12
0 20 -6 8 -7 19 -10 25 -7 5 4 16 -1 24 -9 9 -8 20 -15 26 -15 13 0 53 -54 59
-78 2 -9 4 -40 5 -68 1 -68 -20 -100 -75 -115 -38 -10 -140 -14 -190 -8 -35 5
-52 36 -50 97 3 140 8 192 17 201 13 13 73 18 107 10 14 -4 29 -5 32 -2z"/>
<path d="M733 6623 c4 -3 1 -13 -6 -22 -11 -14 -10 -14 5 -2 16 12 16 31 1 31
-4 0 -3 -3 0 -7z"/>
<path d="M772 6626 c4 -5 0 -15 -10 -23 -13 -10 -14 -13 -2 -11 8 2 18 8 22
13 5 6 8 6 8 -1 0 -9 30 -21 72 -28 3 -1 17 -10 30 -21 45 -37 60 -30 32 15
-8 14 -13 17 -10 8 3 -12 1 -15 -9 -12 -10 4 -11 12 -5 29 7 19 6 23 -5 18 -8
-3 -13 -8 -10 -12 2 -4 -2 -8 -10 -8 -8 0 -12 4 -9 8 2 4 0 10 -6 14 -5 3 -10
-1 -10 -10 0 -15 -2 -15 -17 1 -12 11 -18 13 -21 5 -3 -9 -11 -7 -26 6 -11 10
-18 14 -14 9z"/>
<path d="M7870 7283 c-11 -8 -20 -11 -20 -6 0 4 -10 -12 -21 -37 -21 -44 -22
-59 -23 -556 -1 -565 -3 -553 63 -580 36 -15 199 -22 219 -10 7 4 12 4 12 -1
0 -8 122 -8 269 1 64 4 91 10 116 27 29 21 32 27 30 68 -1 26 1 64 4 86 9 50
-15 90 -63 104 -19 5 -80 9 -137 9 -57 0 -150 1 -206 2 l-102 2 3 353 c2 193
6 357 10 363 3 6 2 13 -3 17 -10 5 -7 36 4 55 3 6 2 10 -4 10 -5 0 -8 11 -7
24 5 39 -36 78 -83 81 -23 1 -49 -4 -61 -12z"/>
<path d="M15195 7292 c-21 -5 -65 -32 -51 -32 5 0 3 -6 -3 -14 -7 -8 -14 -25
-17 -37 -9 -38 -17 -834 -10 -989 3 -81 26 -111 96 -126 30 -7 388 -7 399 0 6
4 11 2 11 -4 0 -6 5 -8 12 -4 6 4 34 8 62 9 57 3 96 15 114 37 17 21 26 74 14
82 -7 4 -8 16 -1 34 19 56 -5 119 -50 130 -17 5 -215 11 -362 12 -78 0 -87 2
-92 20 -3 11 -1 23 4 26 5 3 5 13 1 22 -5 9 -7 28 -5 42 7 62 9 708 1 735 -12
46 -63 70 -123 57z"/>
<path d="M13715 6680 c-3 -5 -1 -10 4 -10 6 0 11 5 11 10 0 6 -2 10 -4 10 -3
0 -8 -4 -11 -10z"/>
<path d="M1810 6660 c-6 -11 -8 -20 -6 -20 3 0 10 9 16 20 6 11 8 20 6 20 -3
0 -10 -9 -16 -20z"/>
<path d="M13683 6673 c4 -3 -1 -12 -11 -20 -15 -13 -14 -13 8 -3 24 10 24 10
6 -4 -17 -14 -21 -14 -36 -1 -17 15 -30 11 -30 -9 0 -6 4 -5 9 2 7 11 9 11 14
-1 3 -8 0 -14 -6 -13 -20 3 -38 17 -32 26 3 5 1 12 -5 15 -6 4 -9 1 -8 -7 2
-7 -3 -12 -9 -10 -7 1 -13 -4 -13 -10 0 -9 -4 -8 -10 2 -8 13 -10 12 -10 -2 0
-21 4 -22 32 -7 12 7 18 7 14 1 -3 -6 0 -12 6 -15 7 -3 -5 -4 -27 -3 -30 1
-39 5 -37 16 2 8 0 12 -4 8 -4 -4 -14 -2 -22 5 -11 8 -10 2 4 -21 18 -32 21
-33 79 -31 33 1 63 7 67 13 5 7 8 7 8 -2 0 -7 5 -10 10 -7 6 4 8 11 4 16 -3 5
-2 9 3 8 22 -4 35 2 30 15 -3 8 -2 16 3 18 5 2 -2 8 -17 15 -14 7 -23 10 -20
6z"/>
<path d="M10066 6658 c3 -5 10 -6 15 -3 13 9 11 12 -6 12 -8 0 -12 -4 -9 -9z"/>
<path d="M12370 6661 c0 -6 4 -13 10 -16 6 -3 7 1 4 9 -7 18 -14 21 -14 7z"/>
<path d="M9118 6653 c7 -3 16 -2 19 1 4 3 -2 6 -13 5 -11 0 -14 -3 -6 -6z"/>
<path d="M12340 6643 c12 -25 2 -30 -20 -10 -12 10 -12 9 -1 -5 10 -14 9 -18
-8 -28 -12 -6 -21 -7 -21 -1 0 5 5 12 10 14 6 3 5 4 -2 3 -7 -2 -13 -9 -13
-17 0 -8 7 -12 15 -10 17 4 23 4 63 -2 24 -4 28 -1 24 14 -3 11 -1 17 4 13 5
-3 9 -13 10 -22 0 -9 3 -12 5 -5 4 7 14 9 34 3 23 -7 29 -5 33 10 2 10 0 24
-5 31 -8 11 -9 10 -5 -3 8 -23 -12 -28 -50 -12 -20 8 -35 9 -38 3 -4 -5 -11
-9 -17 -9 -6 0 -5 7 3 18 7 9 9 14 5 10 -5 -4 -15 0 -23 10 -13 15 -13 15 -3
-5z"/>
<path d="M13455 6649 c-4 -6 -13 -8 -21 -5 -7 3 -16 1 -19 -5 -4 -5 -3 -9 2
-8 19 3 27 -2 14 -10 -23 -15 -5 -27 43 -30 30 -1 46 2 46 10 0 6 -7 9 -14 6
-11 -4 -13 -1 -9 10 4 10 2 14 -4 10 -6 -4 -13 -2 -15 5 -3 7 -7 5 -11 -6 -5
-11 -3 -15 5 -10 7 4 8 3 4 -4 -4 -6 -13 -9 -22 -5 -13 5 -13 8 1 29 8 13 13
24 11 24 -3 0 -8 -5 -11 -11z"/>
<path d="M1744 6639 c1 -7 9 -13 18 -15 11 -1 15 3 11 13 -4 11 -8 12 -13 3
-6 -9 -9 -9 -13 -1 -4 8 -5 8 -3 0z"/>
<path d="M4747 6639 c7 -7 15 -10 18 -7 3 3 -2 9 -12 12 -14 6 -15 5 -6 -5z"/>
<path d="M9073 6638 c-13 -6 -23 -15 -23 -20 0 -5 5 -6 12 -2 6 4 8 3 5 -4 -4
-5 -15 -9 -25 -7 -9 2 -21 4 -25 4 -5 1 -5 6 -1 13 4 6 3 8 -4 5 -5 -4 -8 -17
-4 -29 3 -12 7 -18 9 -12 2 6 17 9 33 6 23 -3 28 -1 26 14 -2 11 4 24 13 31
20 15 13 15 -16 1z"/>
<path d="M9955 6640 c-3 -5 -1 -10 4 -10 6 0 11 5 11 10 0 6 -2 10 -4 10 -3 0
-8 -4 -11 -10z"/>
<path d="M12276 6642 c-3 -5 1 -9 9 -9 8 0 12 4 9 9 -3 4 -7 8 -9 8 -2 0 -6
-4 -9 -8z"/>
<path d="M12494 6639 c-10 -17 9 -28 31 -18 18 9 18 9 -3 5 -17 -3 -22 -1 -18
10 6 17 0 19 -10 3z"/>
<path d="M13313 6638 c3 -9 1 -19 -6 -22 -9 -3 -9 -5 0 -5 18 -1 23 13 11 29
-8 12 -9 12 -5 -2z"/>
<path d="M13379 6633 c-13 -16 -12 -17 4 -4 9 7 17 15 17 17 0 8 -8 3 -21 -13z"/>
<path d="M17214 6638 c-3 -5 0 -7 6 -6 7 2 14 -5 15 -14 3 -15 0 -16 -16 -8
-14 8 -17 7 -13 -4 3 -8 16 -16 29 -18 20 -4 23 -2 16 11 -5 9 -7 23 -6 32 3
16 -22 22 -31 7z"/>
<path d="M17295 6631 c-7 -22 -25 -29 -25 -9 0 6 -3 9 -6 5 -3 -3 -1 -14 5
-24 6 -10 11 -14 11 -10 0 4 8 3 18 -2 14 -7 19 -6 19 4 0 7 -7 11 -15 8 -12
-5 -12 -2 -2 16 6 13 9 25 7 28 -3 2 -8 -5 -12 -16z"/>
<path d="M17350 6637 c0 -2 6 -10 14 -16 11 -9 16 -9 22 1 4 7 4 10 -1 6 -4
-4 -14 -3 -22 3 -7 6 -13 9 -13 6z"/>
<path d="M4704 6622 c4 -7 2 -12 -3 -12 -6 0 -11 -4 -11 -10 0 -15 17 -12 23
5 4 8 1 17 -5 21 -7 4 -8 3 -4 -4z"/>
<path d="M12420 6626 c0 -2 7 -6 15 -10 8 -3 15 -1 15 4 0 6 -7 10 -15 10 -8
0 -15 -2 -15 -4z"/>
<path d="M17160 6620 c-24 -8 -24 -8 -2 -9 12 -1 22 -5 22 -11 0 -5 5 -10 11
-10 8 0 9 4 0 13 -6 8 -8 17 -4 20 7 8 7 8 -27 -3z"/>
<path d="M1617 6607 c-3 -8 1 -14 8 -14 7 0 11 6 8 14 -3 7 -6 13 -8 13 -2 0
-5 -6 -8 -13z"/>
<path d="M5553 6605 c0 -8 4 -12 9 -9 5 3 6 10 3 15 -9 13 -12 11 -12 -6z"/>
<path d="M13340 6612 c-19 -7 -10 -19 13 -18 12 1 32 -1 43 -5 18 -6 21 -4 17
10 -4 17 -41 23 -73 13z"/>
<path d="M12480 6599 c0 -4 7 -9 15 -13 8 -3 15 -1 15 4 0 5 6 7 14 4 8 -3 16
-1 20 4 3 5 -10 9 -29 9 -19 0 -35 -4 -35 -8z"/>
<path d="M12566 6598 c3 -4 9 -8 15 -8 5 0 9 4 9 8 0 5 -7 9 -15 9 -8 0 -12
-4 -9 -9z"/>
<path d="M17116 6602 c-3 -5 1 -9 9 -9 8 0 12 4 9 9 -3 4 -7 8 -9 8 -2 0 -6
-4 -9 -8z"/>
<path d="M17330 6602 c0 -5 7 -9 15 -9 8 0 12 4 9 9 -3 4 -9 8 -15 8 -5 0 -9
-4 -9 -8z"/>
<path d="M17396 6602 c-3 -5 1 -9 9 -9 8 0 12 4 9 9 -3 4 -7 8 -9 8 -2 0 -6
-4 -9 -8z"/>
<path d="M2811 5455 c-74 -25 -110 -85 -106 -175 5 -85 26 -124 83 -152 22
-11 32 -13 32 -5 0 8 3 7 9 -2 6 -9 10 -10 16 -2 5 9 10 9 21 0 8 -6 14 -8 14
-3 0 4 5 3 12 -4 9 -9 14 -7 23 5 10 13 14 13 20 3 6 -9 4 -11 -5 -5 -8 5 -11
4 -6 -3 4 -6 13 -9 21 -6 8 4 13 10 10 14 -3 5 8 2 25 -6 24 -12 30 -22 30
-47 0 -38 -7 -48 -40 -65 -54 -27 -127 -9 -152 36 -15 29 -51 44 -83 36 -25
-6 -38 -45 -29 -86 3 -13 6 -29 6 -35 1 -7 5 -13 10 -13 4 0 8 -5 8 -10 0 -17
42 -55 79 -70 41 -17 157 -17 201 0 3 1 8 2 13 1 4 0 7 3 7 8 0 5 9 13 20 16
46 15 81 87 82 170 2 72 -3 85 -42 125 -21 22 -43 41 -47 41 -4 1 -17 3 -28 5
-11 2 -31 6 -45 8 -14 2 -25 5 -25 6 0 1 -19 3 -42 5 -59 5 -80 19 -79 49 2
30 41 70 62 62 7 -3 14 -1 14 4 0 11 28 9 48 -3 6 -5 17 -5 22 -2 6 3 13 -1
16 -9 3 -9 10 -13 15 -10 5 3 9 -2 9 -10 0 -9 5 -16 11 -16 5 0 8 -4 5 -9 -9
-14 20 -21 33 -8 9 9 11 8 6 -5 -8 -21 -2 -22 26 -7 12 6 18 17 15 24 -3 8 -1
17 4 20 4 3 7 13 5 23 -2 9 -4 22 -4 29 -2 24 -63 69 -106 77 -5 1 -15 5 -20
8 -16 10 -139 5 -174 -7z"/>
<path d="M3389 5451 c-12 -10 -24 -26 -26 -37 -2 -10 -5 -124 -6 -253 -2 -167
1 -240 9 -257 9 -17 9 -24 1 -28 -7 -2 -4 -5 6 -5 10 -1 15 -5 12 -11 -9 -14
8 -12 24 3 11 10 13 9 8 -4 -4 -13 0 -15 21 -11 24 5 25 6 7 13 -18 7 -17 8 5
8 14 0 34 1 45 1 11 0 57 1 102 0 81 0 132 13 135 34 4 34 3 66 -4 67 -14 2
-28 6 -30 9 -2 1 -50 3 -108 5 -58 1 -109 3 -113 4 -5 0 -8 92 -7 204 2 277 5
253 -30 265 -24 9 -33 7 -51 -7z"/>
<path d="M3990 5453 c-27 -19 -30 -46 -32 -303 -1 -181 2 -241 12 -260 7 -14
13 -27 12 -30 0 -3 6 -4 15 -2 8 2 12 -1 8 -7 -3 -7 0 -8 9 -5 9 3 16 10 16
16 0 5 -6 6 -12 2 -7 -4 -10 -4 -7 0 9 10 288 13 282 3 -2 -4 -8 -5 -12 -3 -4
3 -13 0 -21 -5 -11 -7 -8 -8 10 -5 14 3 28 5 33 5 4 1 7 7 7 15 0 8 7 16 15
20 20 7 19 60 -1 77 -12 9 -51 14 -133 14 l-116 1 -3 54 c-5 87 0 96 50 92 24
-3 46 -10 50 -16 6 -8 8 -7 8 2 0 6 7 12 15 12 8 0 15 -5 15 -11 0 -5 -5 -7
-12 -3 -7 5 -8 3 -3 -6 6 -10 11 -9 22 5 11 16 13 17 13 2 0 -13 7 -15 37 -11
47 6 53 12 60 62 8 60 -19 74 -150 76 l-102 1 0 58 c0 58 1 59 45 59 36 0 41
-2 34 -14 -4 -7 2 -4 14 6 12 11 22 14 22 8 0 -11 18 -11 37 1 15 10 56 -10
48 -24 -4 -5 -1 -9 5 -9 7 0 9 7 6 16 -5 12 -1 14 17 8 12 -3 19 -3 15 1 -5 5
1 14 11 22 16 11 20 29 11 53 -1 3 -2 8 -1 12 3 24 -316 34 -349 11z m5 -572
c3 -5 2 -12 -3 -15 -5 -3 -9 1 -9 9 0 17 3 19 12 6z"/>
<path d="M4612 5462 c-12 -2 -27 -13 -33 -24 -17 -32 -18 -540 -1 -545 6 -3
12 -9 12 -14 0 -6 -4 -7 -10 -4 -16 10 -11 -1 7 -16 11 -10 14 -10 9 -1 -5 8
0 12 16 13 142 6 144 5 139 -25 -1 -5 5 -4 13 4 19 15 21 24 4 14 -10 -5 -10
-4 -1 6 9 10 15 10 28 -4 19 -19 32 -22 17 -3 -8 9 -2 12 26 13 62 3 100 9 96
16 -2 4 0 9 6 13 16 10 12 43 -8 63 -14 14 -33 18 -95 16 -49 -1 -74 3 -70 9
4 6 1 7 -8 2 -12 -8 -29 -9 -72 -6 -9 1 -12 15 -11 44 2 23 3 56 3 73 l1 30
78 -3 c59 -2 80 -7 91 -20 13 -17 13 -17 7 0 -5 15 -2 17 15 12 14 -5 19 -3
15 3 -7 11 12 11 30 0 6 -4 11 -2 11 5 0 7 3 24 6 39 11 56 -16 68 -163 71
l-85 2 -1 53 c-1 30 3 55 10 59 17 11 36 12 36 2 0 -6 6 -7 17 -1 9 6 29 6 45
2 15 -5 28 -5 28 -1 0 6 40 7 48 1 8 -7 28 -4 34 5 5 6 8 6 8 -2 0 -9 7 -7 20
4 11 10 20 27 20 38 -1 20 -27 62 -35 58 -3 -2 -6 -3 -7 -2 -7 3 -276 4 -296
1z"/>
<path d="M5204 5458 c-3 -5 -9 -6 -14 -3 -4 3 -11 -7 -15 -22 -10 -39 -6 -523
5 -542 7 -15 37 -19 82 -12 17 3 25 51 27 164 1 42 5 67 12 67 6 0 8 -7 5 -16
-3 -8 -2 -12 3 -9 5 3 12 2 15 -3 5 -9 47 -9 62 0 5 3 18 4 28 2 11 -1 34 3
52 11 18 7 35 11 38 7 3 -3 6 0 6 6 0 7 8 12 17 12 9 0 14 3 10 6 -3 3 2 14
11 24 8 11 17 25 18 32 2 7 7 29 11 48 27 117 -38 209 -159 226 -69 10 -209
11 -214 2z m171 -110 c42 -1 99 -62 85 -89 -16 -28 -64 -51 -79 -36 -8 8 -11
8 -11 -2 0 -8 -10 -11 -28 -10 -15 2 -33 0 -40 -4 -14 -9 -14 -6 -12 78 2 71
4 75 33 69 12 -3 36 -5 52 -6z m-33 -252 c7 4 8 2 4 -5 -9 -13 -26 -5 -25 12
0 9 2 8 6 -1 2 -6 10 -9 15 -6z"/>
<path d="M6193 5460 c-19 -8 -26 -21 -25 -50 1 -33 26 -169 41 -217 5 -18 8
-33 6 -33 -2 0 2 -15 10 -34 8 -18 12 -36 9 -39 -3 -3 -2 -12 2 -19 5 -7 9
-17 10 -23 7 -45 48 -175 55 -175 5 0 9 -6 9 -14 0 -9 9 -12 28 -9 15 2 32 5
39 5 7 1 10 5 7 9 -2 4 2 23 10 41 8 18 26 69 39 113 24 79 29 82 43 23 1 -5
2 -9 4 -10 4 -6 12 -44 14 -65 0 -11 4 -19 9 -16 4 2 7 -2 7 -10 0 -22 26 -68
34 -60 4 4 4 -1 0 -12 -6 -14 -4 -17 8 -12 10 3 19 -1 23 -11 6 -15 8 -15 25
5 9 12 20 20 24 18 3 -3 4 -2 1 1 -2 4 1 16 7 28 11 20 23 62 34 116 2 14 7
32 10 40 4 8 8 31 11 50 3 19 9 40 15 47 5 7 7 17 3 23 -4 6 -1 17 5 25 7 8
10 15 7 15 -3 0 -1 16 5 36 21 77 31 133 31 166 -1 30 -20 54 -43 52 -8 0 -23
-2 -32 -2 -10 -1 -20 -13 -24 -27 -3 -14 -9 -25 -13 -25 -3 0 -7 -16 -9 -36
-1 -20 -5 -41 -9 -48 -4 -6 -9 -20 -11 -31 -1 -11 -4 -27 -5 -35 -1 -8 -6 -21
-10 -27 -5 -7 -6 -17 -2 -22 3 -5 1 -12 -4 -16 -5 -3 -8 -14 -6 -25 2 -11 -1
-20 -7 -20 -5 0 -7 -7 -4 -16 3 -9 2 -12 -5 -9 -10 7 -31 51 -33 70 -1 6 -12
31 -24 58 -22 43 -27 47 -58 47 -21 0 -33 -4 -29 -10 3 -5 2 -10 -3 -10 -9 0
-48 -108 -44 -122 1 -5 -3 -8 -9 -8 -5 0 -8 -4 -5 -9 3 -4 0 -16 -7 -25 -11
-15 -15 -6 -27 61 -7 43 -13 81 -12 86 1 4 -2 7 -7 7 -5 0 -8 6 -8 13 1 6 -6
47 -16 90 -22 92 -40 109 -94 87z"/>
<path d="M7010 5455 c-11 -6 -17 -14 -14 -18 4 -4 3 -7 -3 -7 -6 0 -13 -9 -16
-20 -3 -11 0 -20 6 -20 8 0 8 -3 2 -8 -12 -8 -13 -455 -1 -489 4 -13 12 -23
17 -23 6 0 7 5 3 12 -5 7 -3 8 7 2 8 -5 46 -9 84 -10 98 -2 107 -3 101 -12 -3
-5 1 -9 8 -9 8 0 12 6 9 13 -3 8 2 11 14 9 10 -2 24 -4 31 -4 7 -1 11 -5 8 -9
-2 -4 3 -8 13 -8 13 0 17 6 14 21 -4 20 -4 20 11 1 10 -13 16 -15 16 -7 0 10
4 10 13 3 9 -8 12 -4 14 16 0 15 6 28 12 30 11 4 -13 61 -27 63 -4 1 -56 3
-117 4 -60 2 -113 3 -117 4 -8 1 -8 117 0 138 2 7 7 11 12 8 4 -2 34 -6 68 -7
33 -1 58 -6 56 -9 -7 -12 19 -16 46 -9 14 4 32 6 41 5 9 -2 16 3 16 11 0 7 -5
10 -11 6 -14 -8 -63 -15 -55 -8 3 3 14 7 25 9 41 8 51 18 51 52 0 34 -12 46
-49 50 -10 2 -19 4 -20 5 -2 1 -43 3 -93 4 l-90 1 0 48 c-1 26 2 52 5 57 3 5
37 10 76 11 111 2 126 0 118 -13 -6 -10 -4 -10 8 0 8 7 22 11 29 9 8 -2 11 -2
7 0 -9 6 25 41 34 36 4 -2 0 10 -10 27 -9 16 -26 33 -37 37 -34 11 -293 10
-315 -2z"/>
<path d="M7622 5463 c-26 -9 -39 -58 -39 -144 0 -47 -2 -90 -6 -95 -3 -6 -2
-15 1 -21 4 -7 5 -42 2 -78 -3 -37 -2 -69 2 -71 5 -3 5 -10 2 -16 -10 -16 -5
-130 6 -143 6 -7 7 -15 3 -18 -3 -4 -1 -7 6 -7 7 0 10 -4 7 -8 -3 -5 1 -9 9
-9 8 0 12 4 9 8 -4 6 178 12 309 10 12 0 17 5 13 15 -3 8 -1 14 4 14 16 0 11
56 -6 70 -10 9 -53 14 -127 16 -62 1 -115 2 -118 3 -9 2 -5 305 5 320 6 9 5
12 0 8 -5 -3 -9 16 -9 43 0 26 4 46 8 43 10 -6 -13 36 -28 52 -11 11 -33 14
-53 8z"/>
<path d="M8208 5443 c-22 -23 -22 -28 -22 -276 1 -139 3 -261 4 -272 2 -11 13
-29 23 -40 19 -20 19 -20 7 5 -13 24 -12 25 7 8 11 -10 24 -18 29 -18 5 0 2 5
-6 10 -10 6 4 9 43 8 31 -1 59 1 63 4 10 11 34 -3 27 -16 -5 -8 -3 -8 8 0 8 6
21 12 29 12 8 1 26 3 40 5 14 2 31 -1 38 -6 7 -6 12 -6 12 1 0 5 9 12 20 15
13 3 18 1 14 -6 -5 -9 -4 -9 5 -1 26 24 18 94 -11 102 -5 1 -9 2 -10 3 -2 0
-51 2 -110 3 -59 1 -110 5 -114 9 -4 4 -7 60 -6 125 1 64 2 158 3 209 0 50 -4
100 -10 111 -16 31 -56 33 -83 5z"/>
<path d="M9173 5446 c-16 -19 -18 -46 -21 -275 -2 -140 0 -261 4 -270 5 -9 8
-23 8 -31 1 -8 7 -16 14 -16 6 -1 15 -3 20 -4 4 -1 11 -2 16 -1 5 1 12 -3 16
-9 5 -8 9 -6 13 5 4 9 3 13 -2 10 -5 -3 -12 -2 -15 3 -2 4 36 9 86 11 80 2 90
1 84 -14 -3 -9 -2 -13 4 -10 6 3 10 12 10 18 0 14 92 18 101 4 4 -5 9 -5 13 2
4 6 2 11 -4 11 -7 0 -8 6 0 19 5 11 10 28 10 39 0 37 -26 46 -138 48 -59 1
-112 2 -118 3 -8 1 -11 66 -9 223 1 201 0 222 -16 236 -26 23 -55 22 -76 -2z
m37 -588 c0 -7 -5 -6 -13 1 -8 6 -18 7 -22 3 -5 -4 -5 -2 -1 5 8 14 36 6 36
-9z"/>
<path d="M9793 5444 c-12 -19 -15 -67 -16 -271 0 -136 1 -255 4 -263 6 -23 28
-42 39 -35 5 3 10 1 10 -4 0 -6 5 -11 11 -11 5 0 7 4 4 10 -4 6 1 7 12 3 10
-3 15 -3 11 2 -4 4 -1 14 7 22 12 11 15 46 16 151 0 75 1 194 2 265 1 139 -3
151 -54 153 -22 1 -35 -6 -46 -22z"/>
<path d="M10158 5450 c-23 -19 -27 -85 -8 -136 6 -16 12 -31 12 -34 1 -13 12
-41 37 -102 9 -22 24 -67 26 -78 2 -11 40 -109 62 -158 29 -65 50 -89 84 -93
28 -4 79 18 79 33 0 5 7 16 15 25 8 8 13 19 10 24 -4 5 -1 9 4 9 6 0 11 9 11
20 0 11 5 20 11 20 5 0 8 4 5 9 -3 4 5 37 18 72 26 69 36 98 35 102 0 1 5 16
11 32 23 59 57 184 55 202 -8 59 -27 75 -75 63 -24 -6 -55 -53 -64 -97 -1 -10
-6 -27 -10 -38 -29 -76 -46 -125 -57 -160 -7 -22 -17 -53 -24 -68 l-12 -28
-17 48 c-10 26 -20 55 -23 63 -3 8 -7 20 -8 25 -2 6 -13 37 -26 70 -27 70 -24
61 -34 103 -4 17 -12 32 -17 32 -5 0 -7 4 -4 9 8 12 -31 44 -55 46 -12 1 -30
-6 -41 -15z"/>
<path d="M10882 5457 c-10 -5 -22 -20 -28 -35 -5 -15 -9 -139 -9 -275 0 -209
2 -249 15 -257 8 -5 11 -10 6 -10 -6 0 -5 -5 2 -12 8 -8 15 -8 28 3 16 13 16
12 4 -11 l-13 -24 28 18 c25 16 27 16 22 2 -5 -13 -3 -15 12 -7 10 6 22 7 26
3 5 -4 5 -1 1 6 -4 7 -12 9 -18 6 -7 -4 -8 -2 -4 4 5 9 16 7 39 -5 24 -12 29
-12 20 -2 -9 12 -6 14 17 14 21 1 26 -3 22 -15 -5 -12 -3 -13 10 -3 8 7 18 10
21 6 4 -3 7 -1 7 6 0 7 9 3 20 -10 10 -13 19 -19 20 -12 0 6 -6 13 -12 15 -7
3 -3 7 9 10 15 4 20 2 17 -7 -3 -7 0 -16 7 -21 7 -4 10 -3 6 3 -4 6 0 16 8 23
13 11 14 10 8 -6 -6 -16 -4 -17 9 -7 8 7 18 10 21 6 4 -3 7 1 7 11 0 9 4 14
10 11 6 -3 7 1 4 10 -4 8 -1 21 5 29 8 10 6 19 -12 37 -21 24 -28 25 -139 24
l-116 0 -4 27 c-3 15 0 34 4 42 6 10 5 16 -1 16 -7 0 -7 8 -2 23 4 12 6 27 4
32 -2 7 12 9 37 7 22 -2 37 -8 34 -13 -3 -5 0 -9 5 -9 6 0 11 5 11 10 0 6 5
10 11 10 5 0 7 -4 4 -10 -3 -5 -2 -10 4 -10 5 0 12 6 14 13 3 6 6 3 6 -8 1
-17 3 -17 11 -5 9 13 10 13 10 0 0 -13 1 -13 10 0 6 10 10 11 10 3 0 -18 20
-16 44 5 20 16 20 16 7 0 -18 -23 0 -23 19 0 21 24 24 86 6 101 -20 16 -58 23
-146 26 -41 1 -80 2 -86 3 -10 2 -13 75 -5 113 1 8 33 5 48 -4 6 -4 14 -3 17
2 4 5 18 6 34 2 15 -4 48 -7 75 -5 26 1 50 -2 53 -7 3 -5 -2 -6 -10 -3 -9 3
-16 4 -16 1 0 -3 7 -7 15 -11 10 -4 21 7 34 32 23 46 14 76 -26 87 -38 11
-287 12 -311 2z"/>
<path d="M11887 5464 c-2 -3 -15 -7 -28 -9 -45 -9 -47 -20 -44 -293 1 -141 4
-265 7 -275 5 -21 21 -38 39 -40 8 -2 19 -6 26 -10 6 -4 15 -3 18 3 5 8 12 7
23 -2 12 -10 14 -10 8 0 -4 6 -3 12 3 12 5 0 13 -5 16 -10 5 -8 11 -8 19 -1 9
7 16 7 24 -1 9 -9 12 -9 12 -1 0 7 9 10 20 8 11 -2 22 0 24 3 6 11 -78 9 -85
-1 -3 -4 -11 -1 -18 7 -11 13 -3 14 57 12 38 -2 74 -6 80 -10 15 -9 43 4 35
17 -3 6 -1 7 5 3 17 -10 55 13 48 30 -3 8 0 13 7 11 7 -1 11 4 10 11 -2 6 1
12 5 12 4 0 9 17 11 38 2 20 4 48 5 62 3 28 -24 110 -36 110 -4 0 -8 7 -8 15
0 8 -6 15 -12 15 -7 1 -3 9 9 19 28 23 43 103 28 148 -28 83 -81 110 -227 117
-42 2 -79 2 -81 0z m97 -116 c-5 -10 -4 -10 6 -1 8 7 20 9 35 3 13 -5 25 -6
28 -3 3 2 12 -8 20 -24 16 -31 8 -59 -22 -78 -24 -14 -92 -17 -107 -4 -19 16
-14 102 6 111 25 11 42 9 34 -4z m27 -229 c6 -10 9 -11 9 -1 0 6 5 12 10 12
19 0 59 -51 58 -73 0 -40 -9 -68 -18 -62 -6 3 -10 1 -10 -6 0 -7 -3 -9 -6 -6
-4 3 -16 2 -27 -4 -15 -8 -18 -8 -12 1 6 9 3 9 -13 1 -26 -14 -71 4 -73 28 -4
59 -3 88 5 99 5 7 5 12 0 12 -5 0 -3 4 5 9 19 12 62 6 72 -10z m-81 -260 c0
-6 -4 -8 -9 -4 -5 3 -12 1 -16 -5 -4 -6 -11 -8 -16 -4 -5 3 -7 9 -5 13 7 11
46 11 46 0z"/>
<path d="M12037 5109 c7 -7 15 -10 18 -7 3 3 -2 9 -12 12 -14 6 -15 5 -6 -5z"/>
<path d="M12461 5456 c-12 -5 -22 -13 -22 -18 -2 -12 -6 -28 -8 -30 -1 -2 -3
-117 -4 -255 -1 -240 0 -254 18 -269 11 -8 14 -13 8 -9 -9 4 -11 1 -7 -10 4
-9 9 -14 12 -11 2 3 14 1 26 -5 21 -10 21 -10 1 6 l-20 17 20 -4 c11 -2 26
-10 33 -18 12 -13 13 -13 8 3 -5 14 1 17 40 17 32 0 43 -3 38 -12 -4 -6 -3 -8
4 -4 6 3 13 2 17 -4 4 -6 13 -7 23 -1 9 4 25 7 35 6 9 -2 15 1 11 6 -3 5 -10
6 -16 3 -7 -4 -8 -2 -4 4 5 9 13 9 27 1 36 -19 59 -19 72 2 15 24 29 25 20 2
-3 -10 -3 -15 1 -11 4 3 10 26 12 51 7 63 -13 74 -139 72 -54 -1 -101 3 -104
8 -3 5 -9 4 -13 -3 -8 -13 -12 96 -4 123 4 12 16 17 39 17 24 0 35 -5 38 -17
4 -15 5 -15 6 2 1 15 3 17 10 6 5 -7 27 -15 50 -16 26 -2 39 0 35 7 -4 6 2 6
15 -1 28 -15 55 12 59 60 3 37 -11 58 -45 64 -10 2 -18 4 -18 5 0 1 -40 3 -90
4 -49 2 -93 4 -98 5 -12 2 0 103 14 112 7 4 22 3 35 -1 12 -5 31 -6 43 -3 12
3 27 -2 37 -11 24 -24 111 -19 126 7 8 15 7 18 -4 12 -8 -5 -7 -1 3 9 21 22
13 63 -15 78 -26 14 -295 18 -325 4z m284 -104 c-7 -8 -55 -11 -59 -4 -2 4 11
7 30 8 19 0 32 -1 29 -4z m25 -476 c0 -3 -4 -8 -10 -11 -5 -3 -10 -1 -10 4 0
6 5 11 10 11 6 0 10 -2 10 -4z m-110 -10 c0 -9 -30 -14 -35 -6 -4 6 3 10 14
10 12 0 21 -2 21 -4z"/>
<path d="M13047 5455 c-15 -6 -24 -14 -21 -18 4 -4 2 -7 -5 -7 -6 0 -10 -9 -7
-22 10 -54 19 -77 27 -72 5 3 9 1 9 -4 0 -5 10 -8 23 -7 12 1 30 -2 41 -7 14
-8 17 -7 10 4 -6 11 -5 11 8 0 11 -9 18 -10 23 -2 3 5 12 10 19 10 11 0 14
-41 15 -205 0 -112 2 -210 3 -217 2 -7 12 -17 23 -21 16 -7 17 -10 5 -17 -8
-5 -10 -10 -5 -10 6 1 18 7 28 15 11 7 26 11 35 8 10 -4 14 -3 10 2 -4 4 -3
14 3 21 6 8 11 93 12 223 0 116 5 211 10 211 4 0 5 5 1 12 -4 7 -3 8 5 4 6 -4
8 -13 4 -19 -4 -7 2 -5 12 3 15 12 17 12 10 1 -6 -11 -4 -13 8 -8 10 3 17 2
17 -4 0 -6 5 -7 10 -4 6 3 10 0 10 -7 0 -8 3 -9 8 -3 4 6 17 10 30 9 24 -1 35
9 39 40 2 11 8 24 13 31 6 7 1 21 -14 40 l-23 29 -185 1 c-114 1 -195 -3 -211
-10z"/>
<path d="M13751 5462 c-13 -2 -29 -9 -36 -15 -16 -17 -25 -56 -14 -63 5 -3 9
-17 9 -31 0 -18 4 -24 15 -19 8 3 15 0 15 -6 0 -6 6 -5 17 3 13 11 15 11 9 1
-6 -10 -3 -13 10 -11 11 2 25 -1 33 -5 11 -7 13 -5 7 9 -5 15 -4 16 8 6 11
-10 16 -9 24 5 9 16 10 15 17 -4 3 -12 7 -116 8 -232 0 -115 4 -207 9 -204 4
3 8 1 8 -4 0 -5 10 -9 23 -8 12 1 25 -3 29 -9 5 -6 8 -6 8 3 0 6 6 12 13 12 8
0 15 6 16 13 2 16 9 262 10 364 l1 82 31 -1 c20 -1 26 -4 17 -9 -7 -5 -10 -9
-5 -10 26 -5 34 -4 46 5 11 8 13 8 8 -1 -4 -6 -2 -13 5 -15 16 -6 58 15 56 27
-3 19 13 55 23 50 5 -3 1 8 -9 25 -9 16 -26 33 -37 37 -21 7 -331 11 -374 5z"/>
<path d="M14408 5449 c-23 -18 -23 -19 -26 -284 -2 -235 0 -266 14 -272 9 -3
11 -9 6 -12 -5 -3 0 -15 11 -26 19 -20 19 -20 13 5 -3 14 -3 19 0 12 3 -6 11
-9 16 -6 7 5 8 2 3 -6 -6 -10 -1 -12 19 -8 14 3 29 1 32 -3 3 -5 14 -4 25 1
14 8 19 7 19 -1 0 -7 3 -10 6 -6 14 13 -7 27 -27 17 -11 -6 -19 -7 -19 -2 0 6
8 12 18 14 24 6 53 -2 47 -13 -3 -5 2 -6 11 -2 13 5 15 3 9 -7 -5 -9 -4 -11 4
-6 9 6 9 11 0 22 -17 21 -2 17 18 -5 14 -15 22 -17 33 -10 12 9 12 10 -2 5
-10 -3 -18 0 -18 5 0 6 9 9 20 6 11 -3 23 -1 26 4 3 5 11 9 17 9 8 0 8 -3 -1
-9 -10 -6 -10 -10 3 -21 9 -7 15 -9 14 -4 -4 21 2 28 11 14 6 -10 10 -11 10
-2 0 6 5 12 11 12 5 0 7 -6 3 -12 -5 -9 -2 -9 9 1 18 15 23 26 7 16 -5 -3 -10
-2 -10 4 0 5 5 11 11 13 14 5 15 66 1 80 -7 7 -57 12 -134 13 l-123 1 0 68
c-1 76 11 91 48 60 18 -16 20 -16 8 -1 -15 20 -2 23 18 5 11 -10 13 -10 7 0
-4 6 -3 12 2 12 6 0 13 -7 16 -16 4 -9 9 -14 13 -11 3 4 13 1 21 -6 13 -10 14
-9 8 1 -6 11 0 13 25 12 67 -4 81 -1 75 16 -3 8 -2 13 3 10 12 -8 19 47 9 73
-4 12 -16 21 -27 21 -11 0 -23 5 -26 10 -5 8 -11 8 -20 0 -7 -6 -16 -7 -19 -2
-3 5 -39 7 -80 6 -53 -2 -76 1 -77 9 -3 24 2 100 7 108 2 4 17 4 32 -1 16 -4
36 -4 45 1 10 6 21 4 31 -7 9 -8 16 -11 16 -5 0 5 18 9 39 8 22 -1 37 -5 35
-9 -3 -4 -11 -5 -18 -2 -8 3 -16 2 -19 -3 -3 -5 10 -9 29 -9 27 0 33 3 29 14
-5 12 -3 13 10 2 13 -11 14 -10 9 5 -5 12 -4 16 3 12 13 -8 24 30 17 60 -8 30
-42 36 -201 38 -111 1 -136 -2 -155 -16z m227 -328 c-9 -8 -36 -10 -30 -2 2 4
11 8 20 8 8 0 13 -3 10 -6z"/>
<path d="M15004 5453 c-17 -13 -19 -32 -18 -290 0 -207 3 -278 12 -281 7 -2
12 -10 12 -17 0 -8 4 -16 9 -19 5 -4 6 4 3 16 -5 22 -5 22 12 6 21 -22 27 -23
20 -4 -3 8 -1 17 5 21 6 3 11 -1 11 -11 0 -10 2 -15 5 -12 13 13 18 58 24 226
1 19 6 22 45 22 25 0 48 -5 52 -12 5 -8 2 -9 -10 -5 -10 4 -15 3 -11 -3 3 -6
12 -10 18 -11 12 0 77 -126 77 -148 0 -6 5 -11 10 -11 6 0 10 -6 10 -12 1 -29
37 -60 72 -62 23 -2 35 2 35 10 0 7 -5 11 -11 8 -6 -3 -4 0 4 8 8 7 16 24 18
38 2 21 -34 109 -79 193 -7 13 -5 17 6 17 8 0 15 5 15 11 0 5 4 8 9 4 8 -4 23
22 26 45 0 3 4 11 8 18 14 21 11 115 -5 152 -23 53 -48 76 -103 94 -65 23
-254 28 -281 9z m243 -119 c13 -8 22 -18 22 -22 -1 -4 0 -9 1 -12 19 -50 -18
-80 -103 -84 -70 -3 -76 1 -71 44 2 14 4 41 5 60 l1 36 62 -4 c33 -2 71 -10
83 -18z"/>
<path d="M15226 5322 c-3 -5 1 -9 9 -9 8 0 12 4 9 9 -3 4 -7 8 -9 8 -2 0 -6
-4 -9 -8z"/>
<path d="M4086 5342 c-3 -5 1 -9 9 -9 8 0 12 4 9 9 -3 4 -7 8 -9 8 -2 0 -6 -4
-9 -8z"/>
<path d="M4236 5338 c3 -5 10 -6 15 -3 13 9 11 12 -6 12 -8 0 -12 -4 -9 -9z"/>
<path d="M4776 5342 c-3 -5 1 -9 9 -9 8 0 12 4 9 9 -3 4 -7 8 -9 8 -2 0 -6 -4
-9 -8z"/>
<path d="M11055 5340 c3 -5 8 -10 11 -10 2 0 4 5 4 10 0 6 -5 10 -11 10 -5 0
-7 -4 -4 -10z"/>
<path d="M11116 5342 c-3 -5 1 -9 9 -9 8 0 12 4 9 9 -3 4 -7 8 -9 8 -2 0 -6
-4 -9 -8z"/>
<path d="M4896 5113 c-6 -14 -5 -15 5 -6 7 7 10 15 7 18 -3 3 -9 -2 -12 -12z"/>
<path d="M4905 4870 c-3 -5 -12 -7 -19 -4 -8 3 -16 1 -20 -4 -4 -7 27 -9 44
-2 3 1 9 2 13 1 5 -1 6 3 2 9 -8 12 -12 13 -20 0z"/>
<path d="M13255 4869 c-4 -6 -4 -13 -1 -16 3 -4 6 -1 6 6 0 7 5 9 12 5 7 -4 8
-3 4 4 -9 15 -13 15 -21 1z"/>
<path d="M3708 4863 c7 -3 16 -2 19 1 4 3 -2 6 -13 5 -11 0 -14 -3 -6 -6z"/>
<path d="M4111 4863 c-1 -17 16 -25 25 -12 4 7 3 9 -4 5 -5 -3 -13 0 -15 6 -4
9 -6 10 -6 1z"/>
<path d="M5198 4859 c-5 -4 -3 -9 6 -12 8 -3 18 -2 21 4 4 5 10 7 14 5 4 -3
13 -1 20 4 9 5 2 7 -19 6 -17 0 -36 -4 -42 -7z"/>
<path d="M7004 4859 c-8 -14 14 -19 25 -6 8 10 7 14 -5 14 -8 0 -17 -4 -20 -8z"/>
<path d="M7115 4859 c-4 -6 -5 -12 -2 -15 2 -3 7 2 10 11 7 17 1 20 -8 4z"/>
<path d="M7166 4857 c3 -10 9 -15 12 -12 3 3 0 11 -7 18 -10 9 -11 8 -5 -6z"/>
<path d="M7233 4855 c0 -8 4 -12 9 -9 5 3 6 10 3 15 -9 13 -12 11 -12 -6z"/>
<path d="M9466 4862 c-3 -5 1 -9 9 -9 8 0 12 4 9 9 -3 4 -7 8 -9 8 -2 0 -6 -4
-9 -8z"/>
<path d="M13906 4858 c3 -5 10 -6 15 -3 13 9 11 12 -6 12 -8 0 -12 -4 -9 -9z"/>
<path d="M3469 4843 c-13 -16 -12 -17 4 -4 9 7 17 15 17 17 0 8 -8 3 -21 -13z"/>
<path d="M3500 4856 c0 -2 7 -7 16 -10 8 -3 12 -2 9 4 -6 10 -25 14 -25 6z"/>
<path d="M4156 4848 c3 -5 10 -6 15 -3 13 9 11 12 -6 12 -8 0 -12 -4 -9 -9z"/>
<path d="M4196 4848 c3 -5 10 -6 15 -3 13 9 11 12 -6 12 -8 0 -12 -4 -9 -9z"/>
<path d="M9350 4851 c0 -7 -5 -9 -12 -5 -7 5 -8 3 -3 -5 5 -9 10 -10 18 -2 6
6 8 14 4 18 -4 3 -7 1 -7 -6z"/>
<path d="M9817 4849 c7 -7 15 -10 18 -7 3 3 -2 9 -12 12 -14 6 -15 5 -6 -5z"/>
<path d="M11080 4850 c-9 -6 -10 -10 -3 -10 6 0 15 5 18 10 8 12 4 12 -15 0z"/>
<path d="M12546 4851 c-3 -4 4 -7 14 -6 27 2 33 10 10 12 -11 1 -22 -2 -24 -6z"/>
<path d="M8265 4840 c-3 -6 1 -7 9 -4 18 7 21 14 7 14 -6 0 -13 -4 -16 -10z"/>
<path d="M8330 4845 c0 -7 30 -13 34 -7 3 4 -4 9 -15 9 -10 1 -19 0 -19 -2z"/>
<path d="M8405 4840 c-3 -6 1 -7 9 -4 18 7 21 14 7 14 -6 0 -13 -4 -16 -10z"/>
</g>
</svg>
